<?xml version="1.0" standalone="no"?>
<!DOCTYPE svg PUBLIC "-//W3C//DTD SVG 1.1//EN" "http://www.w3.org/Graphics/SVG/1.1/DTD/svg11.dtd" >
<svg xmlns="http://www.w3.org/2000/svg" xmlns:xlink="http://www.w3.org/1999/xlink" version="1.1">
<metadata></metadata>
<defs>
<font id="db_heaventmed" horiz-adv-x="0" >
<font-face units-per-em="2048" ascent="1638" descent="-410" />
<missing-glyph horiz-adv-x="348" />
<glyph unicode="&#x2b;&#x2d;" horiz-adv-x="839" d="M53 0v129h733v-129h-733zM53 484v134h299v303h134v-303h300v-134h-299v-300h-133v300h-301z" />
<glyph unicode="&#x2e;&#x2e;&#x2e;" horiz-adv-x="1388" d="M131 -2v196h197v-196h-197zM592 -2v196h196v-196h-196zM1054 -2v196h198v-196h-198z" />
<glyph unicode="&#x3c;&#x3d;" horiz-adv-x="893" d="M74 123h741l2 -123h-741zM74 510v112l742 334v-132l-568 -259l568 -256v-131z" />
<glyph unicode="&#x3e;&#x3d;" horiz-adv-x="893" d="M74 123h741l2 -123h-741zM74 178l2 131l566 256l-568 259l1 132l741 -334l-1 -112z" />
<glyph unicode="&#xe4f;&#x22;" horiz-adv-x="1038" d="M73 418q0 61 15.5 117.5t44.5 105t70 89t90 68.5t106 44t119 16q60 0 116 -16t104.5 -44t88.5 -68.5t68.5 -89t44.5 -104.5q16 -57 16 -118t-16 -117.5t-44.5 -105.5t-69 -89t-89 -68.5t-104.5 -43.5q-57 -16 -117 -16q-62 0 -118 15.5t-105.5 44t-90 68.5t-69 89 t-44.5 105.5t-16 117.5zM194 422q0 -66 25.5 -124.5t69 -102t102.5 -69.5t126 -26q44 0 84.5 12t75.5 33t64 50t49.5 65t32 77t11.5 85t-11 85t-32 76t-50 64t-64.5 49.5t-76 32t-84.5 11.5q-68 0 -126 -25t-101.5 -68t-69 -101t-25.5 -124zM280 422q0 47 19 89t51 73.5 t75 50.5t91 19q47 0 88.5 -19t73 -50.5t50 -73.5t18.5 -89q0 -48 -18 -91t-49.5 -74.5t-73 -50t-89.5 -18.5t-91 18.5t-75 50t-51 74.5t-19 91zM339 1208h135l-17 -229h-105zM389 422q0 -27 10 -50.5t26.5 -40.5t40.5 -27q22 -9 50 -9q26 0 48 9.5t38.5 26.5t26 40.5 t8.5 50.5q0 26 -9.5 48t-25.5 39t-38 26.5t-47 9.5q-28 0 -51.5 -9.5t-40.5 -26.5t-26.5 -39t-9.5 -48zM562 1208h138l-16 -229h-106z" />
<glyph unicode="&#xe0e;&#xe3a;" horiz-adv-x="919" d="M44 137h82v317q0 17 -3 34.5t-10.5 34.5t-21 32t-35.5 27q8 34 23 67t38 64t55 57.5t73.5 46t93 30.5t113.5 11q74 0 132 -13.5t101 -38t73 -57.5t48 -72t26 -82.5t8 -88.5v-795h-164q-12 18 -28 35.5t-40 30.5t-57 21t-78 8q-36 0 -68 -8t-61.5 -23t-56.5 -37 q-27 -24 -53 -52l1 162q18 20 43.5 37t56.5 30t66 20t74 7q36 0 66 -5t54 -12.5t43 -16.5q18 -8 31 -16l1 628q0 36 -11 70t-36.5 62t-67 45t-103.5 18q-52 0 -90.5 -11.5t-65 -29.5t-42 -38.5t-19.5 -37.5q12 -12 23 -27.5t18.5 -34t11.5 -40.5t4 -44l3 -452h-250z M640 -459q0 24 9 44.5t24.5 36.5t36.5 25t45 9q23 0 43 -9t35.5 -25t24.5 -36q10 -21 10 -45q0 -23 -9 -43.5t-25 -36t-36.5 -24.5t-43.5 -9q-24 0 -44.5 9t-36 24.5t-24.5 36t-9 43.5z" />
<glyph unicode="&#xe0f;&#xe3a;" horiz-adv-x="919" d="M44 137h82v317q0 17 -3 34.5t-10.5 34.5t-21 32t-35.5 27q8 34 23 67t38 64t55 57.5t73.5 46t93 30.5t113.5 11q74 0 132 -13.5t101 -38t73 -57.5t48 -72t26 -82.5t8 -88.5v-795h-168q-3 14 -9.5 31.5t-17.5 32.5t-26 25t-37 10q-20 0 -35 -10t-25.5 -24.5t-15 -32 t-4.5 -32.5h-142q0 11 -3 28t-12 33t-24 28t-37 12q-18 0 -31 -9.5t-21.5 -24t-12 -32.5t-3.5 -35h-134q0 60 16 103.5t43.5 71.5t61 41t67.5 13q50 0 88.5 -20t63.5 -57q14 18 31.5 31.5t36 22.5t37.5 13t35 4q37 0 63 -11t45 -27v624q0 36 -11 70t-36.5 62t-67 45 t-103.5 18q-52 0 -90.5 -11.5t-65 -29.5t-42 -38.5t-19.5 -37.5q12 -12 23 -27.5t18.5 -34t11.5 -40.5t4 -44l3 -452h-250zM640 -459q0 24 9 44.5t24.5 36.5t36.5 25t45 9q23 0 43 -9t35.5 -25t24.5 -36q10 -21 10 -45q0 -23 -9 -43.5t-25 -36t-36.5 -24.5t-43.5 -9 q-24 0 -44.5 9t-36 24.5t-24.5 36t-9 43.5z" />
<glyph unicode="&#xe0e;&#xe38;" horiz-adv-x="919" d="M44 137h82v317q0 17 -3 34.5t-10.5 34.5t-21 32t-35.5 27q8 34 23 67t38 64t55 57.5t73.5 46t93 30.5t113.5 11q74 0 132 -13.5t101 -38t73 -57.5t48 -72t26 -82.5t8 -88.5v-795h-164q-12 18 -28 35.5t-40 30.5t-57 21t-78 8q-36 0 -68 -8t-61.5 -23t-56.5 -37 q-27 -24 -53 -52l1 162q18 20 43.5 37t56.5 30t66 20t74 7q36 0 66 -5t54 -12.5t43 -16.5q18 -8 31 -16l1 628q0 36 -11 70t-36.5 62t-67 45t-103.5 18q-52 0 -90.5 -11.5t-65 -29.5t-42 -38.5t-19.5 -37.5q12 -12 23 -27.5t18.5 -34t11.5 -40.5t4 -44l3 -452h-250z M609 -342h231v-314h-158l2 185h-74z" />
<glyph unicode="&#xe0f;&#xe38;" horiz-adv-x="919" d="M44 137h82v317q0 17 -3 34.5t-10.5 34.5t-21 32t-35.5 27q8 34 23 67t38 64t55 57.5t73.5 46t93 30.5t113.5 11q74 0 132 -13.5t101 -38t73 -57.5t48 -72t26 -82.5t8 -88.5v-795h-168q-3 14 -9.5 31.5t-17.5 32.5t-26 25t-37 10q-20 0 -35 -10t-25.5 -24.5t-15 -32 t-4.5 -32.5h-142q0 11 -3 28t-12 33t-24 28t-37 12q-18 0 -31 -9.5t-21.5 -24t-12 -32.5t-3.5 -35h-134q0 60 16 103.5t43.5 71.5t61 41t67.5 13q50 0 88.5 -20t63.5 -57q14 18 31.5 31.5t36 22.5t37.5 13t35 4q37 0 63 -11t45 -27v624q0 36 -11 70t-36.5 62t-67 45 t-103.5 18q-52 0 -90.5 -11.5t-65 -29.5t-42 -38.5t-19.5 -37.5q12 -12 23 -27.5t18.5 -34t11.5 -40.5t4 -44l3 -452h-250zM609 -342h231v-314h-158l2 185h-74z" />
<glyph unicode="&#xe0e;&#xe39;" horiz-adv-x="919" d="M44 137h82v317q0 17 -3 34.5t-10.5 34.5t-21 32t-35.5 27q8 34 23 67t38 64t55 57.5t73.5 46t93 30.5t113.5 11q74 0 132 -13.5t101 -38t73 -57.5t48 -72t26 -82.5t8 -88.5v-795h-164q-12 18 -28 35.5t-40 30.5t-57 21t-78 8q-36 0 -68 -8t-61.5 -23t-56.5 -37 q-27 -24 -53 -52l1 162q18 20 43.5 37t56.5 30t66 20t74 7q36 0 66 -5t54 -12.5t43 -16.5q18 -8 31 -16l1 628q0 36 -11 70t-36.5 62t-67 45t-103.5 18q-52 0 -90.5 -11.5t-65 -29.5t-42 -38.5t-19.5 -37.5q12 -12 23 -27.5t18.5 -34t11.5 -40.5t4 -44l3 -452h-250z M310 -342h234v-114q0 -40 17 -61t53 -21q34 0 52 20q18 22 16 62l1 114h157v-114q0 -44 -12 -83t-38.5 -68t-70 -46t-106.5 -17q-59 0 -101.5 14.5t-70 40.5t-41.5 62.5t-16 81.5h-73z" />
<glyph unicode="&#xe0f;&#xe39;" horiz-adv-x="919" d="M44 137h82v317q0 17 -3 34.5t-10.5 34.5t-21 32t-35.5 27q8 34 23 67t38 64t55 57.5t73.5 46t93 30.5t113.5 11q74 0 132 -13.5t101 -38t73 -57.5t48 -72t26 -82.5t8 -88.5v-795h-168q-3 14 -9.5 31.5t-17.5 32.5t-26 25t-37 10q-20 0 -35 -10t-25.5 -24.5t-15 -32 t-4.5 -32.5h-142q0 11 -3 28t-12 33t-24 28t-37 12q-18 0 -31 -9.5t-21.5 -24t-12 -32.5t-3.5 -35h-134q0 60 16 103.5t43.5 71.5t61 41t67.5 13q50 0 88.5 -20t63.5 -57q14 18 31.5 31.5t36 22.5t37.5 13t35 4q37 0 63 -11t45 -27v624q0 36 -11 70t-36.5 62t-67 45 t-103.5 18q-52 0 -90.5 -11.5t-65 -29.5t-42 -38.5t-19.5 -37.5q12 -12 23 -27.5t18.5 -34t11.5 -40.5t4 -44l3 -452h-250zM310 -342h234v-114q0 -40 17 -61t53 -21q34 0 52 20q18 22 16 62l1 114h157v-114q0 -44 -12 -83t-38.5 -68t-70 -46t-106.5 -17q-59 0 -101.5 14.5 t-70 40.5t-41.5 62.5t-16 81.5h-73z" />
<glyph unicode=" "  horiz-adv-x="348" />
<glyph unicode="&#x09;" horiz-adv-x="348" />
<glyph unicode="&#xa0;" horiz-adv-x="348" />
<glyph unicode="!" horiz-adv-x="518" d="M160 0v186h198v-186h-198zM168 701v277h181v-277l-37 -433h-106z" />
<glyph unicode="&#x22;" horiz-adv-x="612" d="M142 621v357h118v-357h-118zM350 621v357h120l-1 -357h-119z" />
<glyph unicode="#" horiz-adv-x="821" d="M50 274l1 132h151l22 164h-138v131h157l40 277h135l-40 -277h133l39 277h136l-38 -277h121v-131h-138l-23 -164h120v-132h-141l-38 -274h-139l40 274h-129l-41 -274h-136l38 274h-132zM340 406h130l22 164h-129z" />
<glyph unicode="$" horiz-adv-x="809" d="M33 328h166q2 -83 42.5 -133.5t108.5 -64.5v303q-68 18 -122 40.5t-91 53.5t-56 73.5t-19 102.5q0 62 23 113.5t62 89.5t91 62t112 30v94h121v-94q113 -18 181 -95q70 -77 96 -206h-164q-13 59 -40.5 96t-72.5 50v-278q34 -6 70.5 -18t69.5 -29.5t63 -40.5t52 -52t34 -65 q12 -37 12 -80q0 -63 -22 -115.5t-62 -92t-95 -63.5t-122 -29l1 -114h-122l2 116q-70 9 -126 35.5t-96.5 70.5t-65 104t-31.5 136zM235 717q0 -28 7.5 -47.5t22 -32.5t36 -22t50.5 -16l1 251q-26 -6 -48 -17t-37 -27.5t-23.5 -38.5t-8.5 -50zM472 124q28 4 52 16t41.5 30 t27 43t9.5 57q0 28 -10 49t-27 36t-41 26t-52 19v-276z" />
<glyph unicode="%" horiz-adv-x="1409" d="M134 697q0 56 12 108t39.5 91.5t72.5 63.5t112 24q69 0 115.5 -23t74 -62t38.5 -91q12 -50 12 -108q0 -55 -13 -106.5t-42 -91.5t-75 -64t-110 -24t-109 22t-73 60t-41 89.5t-13 111.5zM274 700q0 -18 1 -38t5 -40t10 -37.5t17 -31t26 -21.5t35 -8q32 0 52 17t31 43 t14 57t3 59q0 18 -1 37t-4 38.5t-10 37t-17.5 31.5t-27 22t-38.5 8q-30 0 -49 -18t-29 -44t-14 -56t-4 -56zM312 -20l618 1018h162l-614 -1018h-166zM798 272q0 57 12 109.5t40.5 92.5t75 63.5t114.5 23.5t113.5 -22.5t72.5 -61.5t38.5 -91t11.5 -110q0 -56 -13.5 -107 t-42 -90.5t-73 -63t-107.5 -23.5q-66 0 -112 22t-75 60t-42 89t-13 109zM940 274q0 -17 1 -36.5t5 -38.5t10.5 -36.5t17 -31t26 -21.5t36.5 -8q32 0 51 16.5t29.5 42t14 56.5t3.5 59q0 18 -1 38t-5 39t-10 37t-17 31.5t-26 21.5t-35 8q-22 0 -37.5 -8t-27 -21.5t-18.5 -31.5 t-11 -38t-5 -40t-1 -38z" />
<glyph unicode="&#x26;" horiz-adv-x="915" d="M48 262q0 58 17 102t46.5 78t70 61.5t86.5 53.5q-19 24 -36.5 48.5t-31.5 51.5t-22.5 56.5t-8.5 62.5q0 43 15.5 82t46.5 68.5t75 47.5q46 17 104 17q50 0 97 -13.5t83 -40.5t58 -67t22 -92q0 -43 -14.5 -80.5t-38.5 -69.5t-55.5 -58t-67.5 -46l142 -168q10 31 16 62 q4 32 8 68h150q-5 -32 -9 -57.5t-8 -46t-8.5 -38.5t-10 -34.5t-13 -34t-17.5 -37.5l214 -238h-204l-95 106q-25 -31 -57 -53.5t-69 -38t-77 -23t-80 -7.5q-72 0 -124 15t-88.5 39t-59 55t-35.5 62t-17 59t-4 48zM210 264q0 -33 14.5 -59.5t38 -45t53.5 -28.5q32 -10 64 -10 q59 0 106 24t81 68q-53 59 -106 122t-103 119q-30 -18 -57 -36t-47 -41t-32 -50t-12 -63zM325 772q0 -17 6.5 -34.5t17.5 -35.5t25 -36q14 -20 30 -38q18 13 38 27.5t36 31.5t26 38q12 21 12 47q0 17 -7.5 32.5t-20 26.5t-30.5 18t-40 7q-18 0 -34.5 -5t-29.5 -15.5t-21 -26 t-8 -37.5z" />
<glyph unicode="'" horiz-adv-x="405" d="M142 621v357h118v-357h-118z" />
<glyph unicode="(" horiz-adv-x="401" d="M61 377q0 84 13.5 168.5t41.5 166.5t69 161t97 151h137q-51 -82 -87 -161t-58.5 -159t-33 -161t-9.5 -166q0 -86 10 -167t32.5 -160.5t58.5 -159.5t86 -162h-138q-49 76 -89.5 153t-69.5 157t-44.5 164.5t-15.5 174.5z" />
<glyph unicode=")" horiz-adv-x="401" d="M-19 1024h137q56 -72 97 -151t69 -161t42 -167t14 -168q0 -90 -17 -174.5t-46 -164.5t-70 -157t-90 -153h-135q50 82 85.5 162t58 159.5t32.5 160.5q12 82 12 167t-11 166t-34 161t-58.5 159t-85.5 161z" />
<glyph unicode="*" horiz-adv-x="528" d="M28 781l36 103l144 -52l-1 148h111v-148l139 52l42 -103l-147 -51l90 -123l-92 -61l-86 124l-86 -124l-94 61l86 123z" />
<glyph unicode="+" horiz-adv-x="860" d="M62 442h300v304h134v-304h302v-133h-301v-301h-133v301h-301z" />
<glyph unicode="," horiz-adv-x="405" d="M103 0v194h197v-161q0 -43 -12 -84.5t-36 -77t-61 -63.5t-88 -44v114q20 7 36 21.5t27 32t16.5 36t5.5 32.5h-85z" />
<glyph unicode="-" horiz-adv-x="663" d="M63 309v133h536l1 -133h-537z" />
<glyph unicode="." horiz-adv-x="405" d="M102 -2l1 196h197l-1 -196h-197z" />
<glyph unicode="/" horiz-adv-x="528" d="M-18 -20l401 1020h155l-407 -1020h-149z" />
<glyph unicode="0" horiz-adv-x="778" d="M36 490q0 40 2 82.5t7.5 85.5t16 84.5t28.5 78.5t43.5 69t62 55t83.5 36t109 13q61 0 108.5 -13t83.5 -36t62 -55t43.5 -69t28 -78.5t16.5 -84.5t7.5 -85.5t1.5 -82.5q0 -56 -3.5 -115.5t-15.5 -115.5t-35 -106.5t-62 -87.5t-96 -59t-139 -22t-139.5 22t-97 59 t-62.5 87.5t-34.5 106.5t-15 115.5t-3.5 115.5zM206 490q0 -34 1 -74t6 -80t16.5 -77t32 -66t51.5 -46.5t75 -17.5t75 17.5t51 46.5t31 66t16.5 77t6.5 80t1 74q0 33 -1.5 72.5t-7.5 79.5t-18 77.5t-32 66.5t-50 46.5t-72 17.5t-72.5 -17.5t-51 -46.5t-31.5 -66.5t-17 -77.5 t-8 -80t-2 -72z" />
<glyph unicode="1" horiz-adv-x="778" d="M95 645l2 145q53 3 99 10.5t81.5 26.5t60.5 54.5t37 95.5h144l1 -977h-162l-1 688q-49 -23 -113 -32.5t-149 -10.5z" />
<glyph unicode="2" horiz-adv-x="778" d="M36 0q6 61 20 110.5t35 90t47.5 73t56.5 60t62.5 50.5t66.5 44q62 40 106 71t73 60t43 61t14 74q0 34 -13 62t-35 47.5t-52 30t-63 10.5q-46 0 -78.5 -20t-53.5 -53t-31 -75q-9 -44 -6 -88h-164q-5 54 3 104t27.5 92t49.5 76t69 58.5t87 37.5t103 13q68 0 128.5 -19.5 t104.5 -57.5t70 -93t26 -127q0 -46 -10 -84.5t-28 -71t-42 -59.5t-51.5 -49t-57 -41.5t-57.5 -36.5q-40 -24 -80 -49t-74 -50.5t-59 -52t-35 -52.5h488v-146h-690z" />
<glyph unicode="3" horiz-adv-x="778" d="M40 322h168q0 -46 11 -83t32 -62.5t54 -39.5t76 -14q42 0 77 11.5t60 32t38 50.5q14 29 14 67q0 39 -12 68.5t-35 48t-55.5 28t-72.5 9.5h-12.5t-9 -0.5t-11 -1t-18.5 -0.5v134h36q32 0 60 9.5t48 27t32 43.5q11 26 11 58q0 66 -37.5 101t-113.5 35q-42 0 -71 -16 t-47 -43t-26 -64t-8 -78h-168q2 77 23 140.5t61 109t99 71t137 25.5q69 0 127.5 -17.5t102 -52.5t68.5 -89q24 -52 24 -124q0 -30 -9 -58t-25 -52t-37 -44t-46 -35q83 -29 120 -87q37 -60 37 -144q0 -48 -13 -89t-35 -75t-53 -60q-31 -28 -67 -46q-20 -11 -43.5 -17.5 t-48 -10.5t-49.5 -5t-51 -1q-79 0 -142.5 21t-108 64t-67.5 107q-24 64 -24 148z" />
<glyph unicode="4" horiz-adv-x="778" d="M27 205l1 143l447 629h145v-621h134v-151h-134v-205h-161v205h-432zM206 356h252v362z" />
<glyph unicode="5" horiz-adv-x="778" d="M38 301h164q4 -37 18 -68t37 -54.5t55 -36.5t72 -13q38 0 72 12.5t59 38.5t39 64t14 90q0 42 -14 77.5t-39 61t-60 39.5t-77 14q-30 0 -56 -4t-48 -14t-40.5 -26.5t-34.5 -39.5h-142l89 535h541v-143h-409l-32 -212q17 10 37 19t41 15t42 10t40 4q70 0 130.5 -22t106 -65 t71.5 -108t26 -151q0 -66 -23 -126.5t-68.5 -107t-114 -74.5t-160.5 -28q-68 0 -128 20t-106 59.5t-73 98t-29 135.5z" />
<glyph unicode="6" horiz-adv-x="778" d="M34 461q0 68 8 134.5t25 125.5t46 109t71.5 86t100 57t131.5 21q65 0 118.5 -17.5t91.5 -52.5t62 -87.5t32 -121.5h-164q-8 69 -46 100t-103 31q-40 0 -69.5 -14.5t-52.5 -38t-38 -53.5t-25 -62t-14.5 -63t-5.5 -55q20 23 45 40.5t54 30t60 19t62 6.5q78 0 137.5 -26 t100.5 -70.5t62 -105t21 -128.5q0 -38 -6.5 -78t-23 -78t-43 -72t-65.5 -59.5t-91 -40t-119 -14.5q-78 0 -135.5 21t-97.5 56.5t-65.5 83t-39.5 100.5t-19 108.5t-5 107.5zM218 318q0 -40 13 -75t36.5 -60t57 -39.5t77.5 -14.5q42 0 75 14.5t55 40t34 59.5q10 35 10 73 q0 40 -10.5 75t-32 61.5t-55.5 42t-78 15.5t-77.5 -15t-57 -41t-35.5 -61t-12 -75z" />
<glyph unicode="7" horiz-adv-x="778" d="M49 826v151h682v-125q-86 -84 -155 -186t-117.5 -213t-74.5 -226.5t-26 -226.5h-182q0 76 12 152t35 151t55 146.5t71.5 138t85 126.5t95.5 112h-481z" />
<glyph unicode="8" horiz-adv-x="778" d="M28 295q0 79 39 141q39 60 110 96q-25 16 -43 38t-30 48t-18 54t-6 57q0 64 24 113.5t65 83t96 51t117 17.5q86 0 145 -23t96 -60t53.5 -84.5t16.5 -97.5q0 -32 -5.5 -60.5t-16.5 -53t-29 -45.5q-20 -20 -46 -36q35 -18 64 -42t49 -55t31 -66.5t11 -75.5 q0 -76 -29 -133.5t-78 -97.5t-113.5 -60t-136.5 -20q-76 0 -142 19t-116 58t-79 98t-29 136zM198 291q0 -39 15 -69t41.5 -51t62 -31.5t77.5 -10.5q40 0 74 11.5t59 33.5t39 52t14 67q0 33 -16 62t-42 50t-60 33t-71 12q-38 0 -73.5 -11t-61.5 -31.5t-42 -50.5t-16 -66z M249 723q0 -32 11.5 -56.5t31.5 -41.5t46.5 -25t55.5 -8q28 0 52 9t41 26t27 41t10 55q0 30 -10 53.5t-28 38.5t-43 23t-54 8q-26 0 -51.5 -7.5t-45.5 -22.5t-32 -38t-11 -55z" />
<glyph unicode="9" horiz-adv-x="778" d="M34 652q0 38 7 78t23.5 78t43 71.5t65.5 59t91 40.5t118 15q59 0 106 -12t83.5 -34t63.5 -51t46 -64t31 -74.5t19 -80.5t10 -82t3 -80q0 -68 -7.5 -134t-25 -125.5t-46.5 -109.5t-71 -86.5t-100 -56.5t-132 -20q-66 0 -118.5 17t-91 52t-62.5 87t-31 122h164 q8 -69 46 -100q39 -31 103 -31q40 0 69.5 14.5t52 38t37.5 54t25 62.5t15 62q5 32 5 56q-20 -24 -45 -42t-54 -30t-60 -18t-61 -6q-78 0 -138 25t-101 70t-62 105t-21 130zM202 662q0 -40 11 -75.5t32.5 -62t55 -42t77.5 -15.5t78 15t57 41.5t35 61.5t12 75t-12.5 75t-36 60 t-57.5 39t-77 14q-42 0 -74.5 -15t-55 -40t-34 -59t-11.5 -72z" />
<glyph unicode=":" horiz-adv-x="405" d="M104 -3v197h196v-197h-196zM104 530v197h196v-197h-196z" />
<glyph unicode=";" horiz-adv-x="405" d="M103 0v194h197v-161q0 -43 -12 -84.5t-36 -77t-61 -63.5t-88 -44v114q20 7 36 21.5t27 32t16.5 36t5.5 32.5h-85zM103 727h197v-197h-196z" />
<glyph unicode="&#x3c;" horiz-adv-x="913" d="M82 438l746 334v-137l-568 -256l568 -254v-135l-745 332z" />
<glyph unicode="=" horiz-adv-x="854" d="M64 172v129h726v-129h-726zM64 450v130h726v-130h-726z" />
<glyph unicode="&#x3e;" horiz-adv-x="913" d="M83 -10v135l567 254l-567 256v137l745 -334v-116z" />
<glyph unicode="?" horiz-adv-x="823" d="M102 658q-2 80 20.5 147.5t66.5 116t106.5 75.5t140.5 27q70 0 127.5 -19.5t99 -57t65.5 -91.5t24 -123q-1 -44 -13.5 -78.5t-32.5 -62t-43 -50t-45 -42.5q-20 -18 -39 -36.5t-33.5 -39t-23.5 -45.5t-9 -57l-1 -74h-164l1 86q2 42 14.5 75.5t31.5 61t41 50.5q24 23 44 44 q16 17 35 36t34.5 41t25 48t8.5 56q-4 30 -15 55t-29.5 43t-44.5 27t-59 9q-45 0 -77 -18t-53 -48t-31 -71q-8 -41 -8 -85h-164zM330 0v190h198v-190h-198z" />
<glyph unicode="@" horiz-adv-x="1163" d="M69 508q0 72 19 137.5t53.5 122.5t83.5 103.5t108 79.5t126 51t140 18q66 0 127.5 -14.5t115.5 -41.5t98.5 -65.5t76.5 -85.5t49.5 -103t17.5 -118q0 -58 -16.5 -106t-44.5 -86t-64.5 -67t-75.5 -48t-79 -27t-74 -6q-26 2 -50 15t-42 40q-32 -24 -69 -41.5t-75 -17.5 q-40 0 -73.5 15.5t-58 42.5t-38.5 63.5t-14 78.5t10 84t28 80t44 71t59.5 57t73 37t85.5 13q16 0 34 -4t36 -13t33 -25q15 -18 25 -42q2 6 5 14t6.5 17.5t6 18.5t5.5 16h105l-107 -354q-4 -14 -6 -28.5t-0.5 -26.5t9.5 -19q8 -8 22 -8q28 0 59 19t57.5 53t44 79t17.5 99 q0 81 -30 142t-79.5 102.5t-115 62.5t-136.5 21q-87 0 -161 -33t-128.5 -89t-85 -132t-30.5 -162q0 -57 14.5 -109.5t41 -97.5t64.5 -81.5t84 -63t98 -40.5t110 -14q46 0 89 4.5t83 17t76 35.5t68 60h132q-44 -63 -95 -105t-108 -67.5t-119 -36t-128 -10.5q-76 0 -145 18 t-129 51t-108 79.5t-83 104t-53.5 124.5t-18.5 141zM427 454q0 -22 7 -40.5t19.5 -32t29.5 -21.5t39 -8q24 0 46 11.5t41 30t34.5 43.5t27 51t17.5 53t6 51q0 18 -6 35t-16.5 31t-25.5 23t-34 9q-28 0 -53 -11t-45.5 -29t-36.5 -42t-27.5 -50t-17 -53t-5.5 -51z" />
<glyph unicode="A" horiz-adv-x="964" d="M0 0l382 978h192l390 -978h-198l-101 274h-381l-100 -274h-184zM346 424h260l-132 360z" />
<glyph unicode="B" horiz-adv-x="964" d="M96 0v978h420q44 0 87 -5t81 -17t70.5 -32t56 -49t36.5 -69t13 -92q0 -26 -8 -54.5t-24 -55.5t-41 -50.5t-60 -39.5q41 -9 75 -31.5t58.5 -54.5t38 -70.5t13.5 -79.5q0 -54 -19.5 -104t-61 -88.5t-105.5 -62t-155 -23.5h-475zM272 146h298q40 0 71 11t52 29.5t32 42 t11 49.5q0 41 -14.5 69t-40 45t-61 24.5t-76.5 7.5h-272v-278zM272 572h234q50 0 84.5 11.5t55 30.5t29.5 43.5t9 50.5q0 31 -11.5 54t-34 38t-53.5 22.5t-69 7.5h-244v-258z" />
<glyph unicode="C" horiz-adv-x="1016" d="M46 484q0 72 14 138.5t42 124t69 104t95 80t121 51.5t147 18q82 0 153 -21t127 -63t94 -106q38 -63 52 -147h-181q-12 50 -35 85.5t-55.5 59t-72.5 35t-84 11.5q-54 0 -98 -14t-78 -38.5t-59.5 -58t-42 -73.5t-24.5 -84.5t-8 -90.5q0 -75 18 -142t56 -117.5t97 -80 t141 -29.5q62 0 108 21.5t77 57t47 80.5q18 45 20 92h176q-10 -93 -42 -166t-86 -124t-130 -78t-172 -27q-123 0 -214.5 38.5t-151.5 106t-90 159.5t-30 198z" />
<glyph unicode="D" horiz-adv-x="991" d="M96 0v978h353q120 0 212.5 -29t156.5 -87t97 -145t33 -204q0 -123 -29 -219t-90 -161t-155 -99t-224 -34h-354zM272 146h188q16 0 37.5 2t46.5 7t51.5 15.5t52.5 28t48.5 43t40 61t27 82.5t9.5 108q0 80 -16.5 142.5t-53.5 105.5t-97 66t-144 23h-190v-684z" />
<glyph unicode="E" horiz-adv-x="860" d="M96 0v978h721l-1 -148h-544v-250h482v-148h-482v-286h548v-146h-724z" />
<glyph unicode="F" horiz-adv-x="809" d="M97 0v978h686v-148h-509l-1 -250h436l-1 -148h-435v-432h-176z" />
<glyph unicode="G" horiz-adv-x="1037" d="M46 484q0 72 14 138.5t42 124t69 104t95 80t121 51.5t147 18q83 0 154.5 -21t127 -63t92.5 -106q38 -63 52 -147h-181q-10 50 -31.5 86.5t-53.5 59.5t-73 34t-89 11q-54 0 -98 -14t-78 -38.5t-59.5 -58t-42 -73.5t-24.5 -84.5t-8 -90.5q0 -50 7 -97t22 -88t39 -74.5 t58 -58t78 -38t101 -13.5q62 0 112 22t85.5 58t54.5 83t21 98h-298v148h461v-535h-123l-22 130q-26 -34 -60 -61t-72 -46.5t-79 -30t-80 -10.5q-120 0 -210 38.5t-150.5 106t-90.5 159.5t-30 198z" />
<glyph unicode="H" horiz-adv-x="1016" d="M96 0v978h176v-398h470v398h176v-978h-176v432h-470v-432h-176z" />
<glyph unicode="I" horiz-adv-x="397" d="M110 0v978h176v-978h-176z" />
<glyph unicode="J" horiz-adv-x="723" d="M16 284v39h179v-41q0 -37 6.5 -66t21 -49t39 -30.5t62.5 -10.5q34 0 58 10.5t39 30t21 46.5t6 59l1 706h177v-712q0 -36 -6 -70.5t-20 -66t-37 -59t-57 -47.5t-80 -31q-48 -12 -108 -12q-150 0 -227 77q-75 75 -75 219v8z" />
<glyph unicode="K" horiz-adv-x="966" d="M96 0l1 978h176v-437l447 437h231l-425 -399l434 -579h-212l-344 460l-132 -126v-334h-176z" />
<glyph unicode="L" horiz-adv-x="768" d="M96 0v978h176v-832h476l2 -146h-654z" />
<glyph unicode="M" horiz-adv-x="1216" d="M96 0v978h219l293 -796l278 796h234v-978h-177v685l-259 -685h-152l-260 687v-687h-176z" />
<glyph unicode="N" horiz-adv-x="1020" d="M96 0v978h200l451 -730v730h177v-978h-203l-449 723v-723h-176z" />
<glyph unicode="O" horiz-adv-x="1069" d="M39 488q0 67 13.5 131.5t41.5 121t69 104t95 82t123 54t151 19.5q83 0 152 -19.5t124 -54t96 -82t68.5 -104t40.5 -120.5t13 -132q0 -67 -13 -130.5t-40.5 -119.5t-69 -103t-96.5 -81t-123.5 -53t-151.5 -19q-82 0 -151 19t-123.5 53t-95.5 81t-68.5 103t-41 119.5 t-13.5 130.5zM215 488q0 -45 7.5 -89t24.5 -84.5t42 -74.5t60 -60t81 -40t102 -14q58 0 103 14t81 40t61 60t41 74.5t24 85t8 88.5q0 45 -8 90t-24 85.5t-41.5 75.5t-61 60t-81.5 40t-102 15t-102 -15t-81 -40t-60 -60t-42 -75.5t-24.5 -85.5t-7.5 -90z" />
<glyph unicode="P" horiz-adv-x="923" d="M96 0v978h447q82 0 144.5 -20t104.5 -58t64 -94t22 -127q0 -70 -22 -125t-64 -92.5t-105 -57.5t-145 -20h-270v-384h-176zM272 530h227h10q95 0 143 37q50 39 52 112q0 74 -52 112.5t-154 38.5h-226v-300z" />
<glyph unicode="Q" horiz-adv-x="1069" d="M39 488q0 67 13.5 131.5t41.5 121t69 104t95 82t123 54t151 19.5q83 0 152 -19.5t124 -54t96 -82t68.5 -104t40.5 -120.5t13 -132q0 -64 -12 -124t-36 -114t-61 -100t-85 -80l138 -164h-184l-86 100q-38 -12 -80 -18t-88 -6q-82 0 -151 19t-123.5 53t-95.5 81t-68.5 103 t-41 119.5t-13.5 130.5zM215 488q0 -45 7.5 -89t24.5 -84.5t42 -74.5t60 -60t81 -40t102 -14q32 0 60 4l-128 150h190l76 -90q32 26 54.5 60t37 72.5t21.5 81t7 84.5q0 45 -8 90t-24 85.5t-41.5 75.5t-61 60t-81.5 40t-102 15t-102 -15t-81 -40t-60 -60t-42 -75.5t-24.5 -85 t-7.5 -90.5z" />
<glyph unicode="R" horiz-adv-x="971" d="M96 0v978h475q77 0 137 -18t101.5 -52.5t63 -84t21.5 -112.5q0 -55 -15.5 -98t-42 -74.5t-62.5 -51t-76 -29.5q28 -14 49.5 -30t37 -35t27.5 -43t20 -54l47 -168q12 -44 28.5 -76t29.5 -52h-181q-11 18 -25 49t-28 79l-43 154q-7 23 -18.5 44.5t-31.5 38t-50 26t-72 9.5 h-216v-400h-176zM272 544h244q40 0 77 7t65 24t44 45t16 73q0 30 -9 55.5t-28 43.5t-49 28t-70 10h-290v-286z" />
<glyph unicode="S" horiz-adv-x="911" d="M47 344h167q2 -62 25 -104t60 -67t83 -36t94 -11q40 0 79.5 6.5t71 23t50.5 44.5t19 70q-1 38 -18.5 64t-49.5 43.5t-75 29.5t-95 22q-44 8 -88.5 18.5t-85 24.5t-76 33.5t-61.5 48t-41 66.5t-15 90q0 50 14.5 90t40.5 72t62 56t78 40t90 24t96 8q80 0 147 -23t116 -64 t78 -99t35 -130h-168q-3 38 -19.5 69t-44.5 53t-66 35t-86 13q-37 0 -72 -7t-62.5 -23.5t-44.5 -43t-17 -65.5q0 -32 19 -53.5t52 -36.5t77 -26t92 -20q46 -9 90 -20t84.5 -26t74.5 -36.5t59 -52.5t39.5 -73t14.5 -98q0 -52 -16.5 -94.5t-45 -75.5t-66.5 -56t-82 -38 t-91.5 -22t-94.5 -7q-90 0 -167 20t-135 64t-91 113t-34 167z" />
<glyph unicode="T" horiz-adv-x="788" d="M10 830v148h768v-148h-297v-830h-176v830h-295z" />
<glyph unicode="U" horiz-adv-x="1024" d="M97 368v610h176v-610q0 -118 62.5 -180t184.5 -62q114 0 172 62t60 180v610h176v-610q0 -94 -28 -167t-81 -122t-129 -74t-172 -25q-100 0 -178 24t-132 72t-82.5 121t-28.5 171z" />
<glyph unicode="V" horiz-adv-x="893" d="M-1 978h192l256 -766l258 766h187l-352 -978h-194z" />
<glyph unicode="W" horiz-adv-x="1291" d="M-1 978h181l178 -714l192 714h190l194 -718l180 718h179l-267 -978h-184l-197 733l-207 -733h-180z" />
<glyph unicode="X" horiz-adv-x="901" d="M0 0l340 504l-323 474h213l220 -344l228 344h201l-327 -476l349 -502h-215l-238 358l-245 -358h-203z" />
<glyph unicode="Y" horiz-adv-x="930" d="M-1 978h205l265 -431l261 431h202l-376 -584v-394h-176v392z" />
<glyph unicode="Z" horiz-adv-x="918" d="M48 0v134l580 696h-532v148h758v-137l-574 -695h592v-146h-824z" />
<glyph unicode="[" horiz-adv-x="385" d="M87 -272v1296h287v-133h-128v-1031h128l-1 -132h-286z" />
<glyph unicode="\" horiz-adv-x="528" d="M-10 1000h155l399 -1020h-151z" />
<glyph unicode="]" horiz-adv-x="385" d="M9 891l1 133h285v-1296h-285l1 132h125v1031h-127z" />
<glyph unicode="^" horiz-adv-x="854" d="M52 377l308 610h134l306 -610h-129l-245 487l-236 -487h-138z" />
<glyph unicode="_" horiz-adv-x="723" d="M12 -94h700v-117h-700v117z" />
<glyph unicode="`" horiz-adv-x="397" d="M40 1024h190l124 -207h-128z" />
<glyph unicode="a" horiz-adv-x="766" d="M38 192q0 40 11.5 72.5t32 58.5t47.5 45.5t59 34t67 23t70 13.5q30 4 59.5 5.5t55.5 1.5t46 -0.5t30 -1.5v44q0 26 -12 47t-32 35.5t-45.5 22t-52.5 7.5q-58 0 -94 -22t-48 -68h-168q6 62 34 106t72 72.5t101 42t121 13.5q34 0 69.5 -5t68 -16.5t60.5 -29t48.5 -43.5 t32 -61t12.5 -79v-368q0 -22 1.5 -40t5 -35t9 -33t11.5 -34h-166q-6 26 -10 47t-7 44q-26 -32 -54.5 -52.5t-59.5 -32.5t-62 -17t-63 -5q-48 0 -92 12t-79 38t-57 65t-22 93zM210 205q0 -21 9 -36t25 -24t37 -14t44 -5q52 0 88 13t59 33t33.5 44t10.5 44v84q-24 2 -56 0.5 t-66 -7t-67 -16t-59 -26.5t-42 -38.5t-16 -51.5z" />
<glyph unicode="b" horiz-adv-x="844" d="M78 0v1000h166v-342q20 24 44 42.5t51.5 30t57 17.5t57.5 6q59 0 107.5 -15t87 -41t67 -62t47.5 -79t29 -91t10 -98q0 -80 -21 -150t-63.5 -122t-107 -82t-152.5 -30q-28 0 -56 5t-55 16t-53 29t-50 44v-78h-166zM238 368q0 -46 10.5 -89t34.5 -77t62.5 -55t93.5 -21 q53 0 89 21.5t57.5 57t30 80t8.5 90.5q0 43 -10.5 85t-34 76t-60.5 54.5t-89 20.5q-36 0 -63.5 -10t-49 -27.5t-36.5 -40.5t-24.5 -50t-14.5 -57q-4 -30 -4 -58z" />
<glyph unicode="c" horiz-adv-x="752" d="M39 354q0 83 22 154.5t65.5 123.5t109.5 82t154 30q69 0 126.5 -18.5t100 -53t68 -86t31.5 -117.5h-168q-10 64 -52 97q-44 32 -108 32q-48 0 -82 -20t-56 -54t-32.5 -78t-10.5 -92q0 -43 11.5 -83.5t34.5 -72t58 -50.5t79 -19q38 0 66 10.5t47 28.5t29 43t12 54h172 q-4 -50 -26 -100.5t-63 -90.5t-99 -65t-134 -25q-84 0 -149.5 26.5t-111 75t-69.5 116.5q-25 68 -25 152z" />
<glyph unicode="d" horiz-adv-x="844" d="M42 368q0 50 10 98t29 91t47.5 79t67 62t87 41t107.5 15q28 0 57.5 -6t57 -17.5t51.5 -29.5q24 -19 44 -43v342h166v-1000h-166v78q-24 -26 -50 -44t-53 -29t-55 -16t-56 -5q-88 0 -152.5 30t-107 82t-63.5 122t-21 150zM220 375q0 -46 8.5 -90.5t30 -80t57.5 -57 t89 -21.5q56 0 94 21t62 55t34.5 77t10.5 89q0 28 -4.5 58t-14 57t-24.5 50t-36.5 40.5t-49.5 27.5t-63 10q-52 0 -89 -20.5t-60.5 -54.5t-34 -76t-10.5 -85z" />
<glyph unicode="e" horiz-adv-x="766" d="M38 366q0 86 26 155.5t73 119t113 76.5t146 27q62 0 113 -17t89 -47t66 -71t44 -89t22 -102q5 -37 5 -74q0 -19 -1 -37h-525q2 -37 15 -69t36.5 -56.5t59.5 -38.5t83 -14q60 0 99.5 23t55.5 73h164q-12 -58 -39.5 -103t-69 -75.5t-95.5 -46.5t-119 -16q-92 0 -160.5 28 t-113 79t-65.5 121q-22 70 -22 154zM210 438h347q1 30 -12 59t-36 51.5t-54 36t-65 13.5q-36 0 -66.5 -12t-54 -33t-38.5 -51q-15 -28 -21 -64z" />
<glyph unicode="f" horiz-adv-x="469" d="M24 572v155h111v103v6q0 46 14 82q15 37 43 62.5t70 38.5t96 13q20 0 44 -4.5t46 -13.5v-152q-23 12 -44.5 16t-36.5 4q-32 0 -49.5 -13t-16.5 -45v-97h133v-155h-132v-572h-167v572h-111z" />
<glyph unicode="g" horiz-adv-x="819" d="M38 360q0 42 7 87t23 87.5t42 80.5t65 66.5t91 45.5t120 17q56 0 105 -20t90 -66v69h159v-666q0 -78 -21 -143t-65 -112.5t-111 -73.5t-159 -26q-66 0 -123 17t-99.5 48.5t-68.5 76.5q-25 44 -29 100h166q2 -28 17 -48t38 -32.5t51 -18t56 -5.5q52 0 88.5 19t59 49 t32 67.5t9.5 73.5v35q-22 -25 -46.5 -42t-49.5 -27.5t-51 -14.5t-54 -4q-86 0 -150 28t-107 77t-64 115t-21 140zM210 370q0 -42 8.5 -82t29 -73t54.5 -53t84 -20q53 0 90.5 19t61.5 50t35.5 71t11.5 83q0 27 -4.5 55t-14.5 54t-25 48.5t-36 39t-48 26.5t-60 10 q-51 0 -86 -18.5t-57.5 -50t-33 -72.5t-10.5 -87z" />
<glyph unicode="h" horiz-adv-x="794" d="M78 0v1000h168l-1 -352q26 30 54.5 49t56 30t53 15t45.5 4q79 0 129.5 -21t80.5 -57.5t41 -86t11 -108.5v-473h-168v484q0 54 -30 84t-88 30q-46 0 -81 -15t-58 -41t-34.5 -60t-11.5 -72v-410h-167z" />
<glyph unicode="i" horiz-adv-x="352" d="M92 0v727h168v-727h-168zM92 815v185h167v-185h-167z" />
<glyph unicode="j" horiz-adv-x="352" d="M-19 -137q14 -2 23.5 -2.5t17.5 -1.5t15 -1h14q12 0 20.5 4t13.5 13t7 23v34v795h168v-813q0 -54 -14 -93.5t-39.5 -64.5t-61.5 -37q-37 -12 -81 -12q-20 0 -42 1.5t-40 5.5zM90 815v185h167v-185h-167z" />
<glyph unicode="k" horiz-adv-x="766" d="M78 0v1000h167v-535l274 262h223l-294 -271l306 -456h-203l-228 340l-79 -72v-268h-166z" />
<glyph unicode="l" horiz-adv-x="351" d="M92 0v1000h167v-1000h-167z" />
<glyph unicode="m" horiz-adv-x="1204" d="M78 0v727h160l2 -81q38 51 89 73.5t115 22.5q30 0 60 -6t56 -19.5t49 -36t41 -57.5q18 30 44 52.5t55 37.5t60 22t59 7q58 0 105.5 -13t82 -40t52.5 -69.5t18 -101.5v-518h-167v479q0 27 -5.5 49t-18.5 37t-35.5 23t-55.5 8q-38 0 -67.5 -10.5t-50 -30t-31.5 -47.5 q-9 -24 -9 -53v-11v-444h-168v467q0 28 -4.5 51.5t-17 40.5t-33.5 27t-53 10t-56 -8t-42.5 -21t-31 -29t-20.5 -33t-11 -33t-3 -28l-1 -444h-167z" />
<glyph unicode="n" horiz-adv-x="794" d="M78 0v727h161l-1 -93q18 24 39.5 44t48 34t58.5 22t70 8q76 0 126.5 -21t81 -57t43 -86t12.5 -109v-469h-167v482q0 54 -31.5 84t-90.5 30q-46 0 -80.5 -15t-57 -41t-34 -60t-11.5 -72v-408h-167z" />
<glyph unicode="o" horiz-adv-x="817" d="M37 362q0 80 23.5 150t70.5 121.5t116 81t162 29.5q92 0 160.5 -29.5t115.5 -81t70 -121.5t23 -150q0 -54 -10 -102t-31 -90t-52 -76.5t-72 -59t-92 -37.5t-112 -13q-92 0 -161.5 29t-116.5 80t-70.5 120t-23.5 149zM209 362q0 -58 15.5 -101t42.5 -72.5t63 -44.5t78 -15 q40 0 76 15t62.5 44.5t41.5 73.5q16 42 16 100q0 56 -15 100t-42 74t-62.5 46t-75.5 16q-42 0 -78 -16t-63.5 -46t-43 -74t-15.5 -100z" />
<glyph unicode="p" horiz-adv-x="844" d="M78 -272v999h166v-79q24 26 50 44.5t53 30t55 16.5t56 5q88 0 152.5 -30.5t107 -83t63.5 -122.5t21 -150q0 -50 -9.5 -97.5t-28.5 -90t-47.5 -78.5t-67.5 -62.5t-87.5 -41t-107.5 -14.5q-28 0 -57.5 5.5t-57 17t-51.5 29.5t-44 42v-340h-166zM238 358q0 -28 4.5 -57 t14 -56t24.5 -51t36.5 -41t49 -27t63.5 -10q52 0 89 21t60.5 54t34 75.5t10.5 85.5q0 46 -9 91t-30 80t-57 56.5t-89 21.5q-56 0 -94 -20.5t-62 -54.5t-34.5 -78t-10.5 -90z" />
<glyph unicode="q" horiz-adv-x="844" d="M42 358q0 80 21 150t63.5 122.5t107 83t152.5 30.5q28 0 56 -5t55 -16.5t53 -30t50 -44.5v79h166v-999h-166v340q-20 -24 -44 -42t-51.5 -29.5t-57 -17t-57.5 -5.5q-59 0 -107.5 14.5t-87 41t-67 62.5t-47.5 78.5t-29 90t-10 97.5zM220 352q0 -43 10.5 -85.5t34 -75.5 t60.5 -54t89 -21q35 0 63 10t49.5 27t36.5 41t24.5 51t14 56t4.5 57q0 46 -10.5 90t-34.5 78t-62.5 54.5t-93.5 20.5q-53 0 -89 -21.5t-57.5 -56.5t-30 -80t-8.5 -91z" />
<glyph unicode="r" horiz-adv-x="493" d="M78 0v727h160v-102q22 31 45 53.5t52 37t64 20.5t82 6v-164q-72 0 -118 -17.5t-72.5 -50t-36 -79.5t-9.5 -107v-324h-167z" />
<glyph unicode="s" horiz-adv-x="717" d="M34 250h168q0 -36 15 -59.5t37 -38t49 -20.5t53 -6q30 0 58 3.5t49 12.5t33 24q14 15 14 38q0 22 -12 37.5t-33 26.5t-50 19.5t-62 15.5q-32 6 -66.5 15t-66.5 21.5t-60.5 28.5t-50 39t-33.5 52t-12 67t12.5 70t34.5 56t51.5 42t63.5 29t70 16t71 5q63 -2 116.5 -17 t92.5 -44.5t61 -73t22 -101.5h-168q-1 20 -9 37t-23 30t-35 21t-46 9q-28 2 -54 -2.5t-45 -13.5t-30 -23t-11 -32t13 -30t35 -21.5t51 -17t62 -15.5q71 -17 124.5 -36t89 -45.5t53.5 -63.5t18 -89q0 -46 -13.5 -81t-36 -61t-53.5 -43.5t-67.5 -28t-75.5 -14.5q-40 -4 -81 -4 q-42 0 -81.5 7t-75.5 21t-66 35.5t-52 51t-35 67.5t-13 84z" />
<glyph unicode="t" horiz-adv-x="456" d="M10 583v144h110v187h167v-187h133v-144h-133v-363q0 -21 2 -34.5t7.5 -21.5t16.5 -12t27 -6h11t18.5 0.5t23.5 1t27 2.5v-148q-10 -2 -24 -3t-31 -2t-35 -1.5t-35 -0.5q-42 0 -74.5 9.5t-54.5 31.5t-34 59t-12 91v397h-110z" />
<glyph unicode="u" horiz-adv-x="798" d="M78 258v469h167v-483q0 -52 32 -81.5t89 -29.5q48 0 83.5 14t58.5 39t34.5 59.5t11.5 76.5v405h166v-727h-162v83q-36 -47 -89 -73t-118 -26q-79 0 -131.5 20.5t-84 57t-44.5 87t-13 109.5z" />
<glyph unicode="v" horiz-adv-x="745" d="M17 727h187l174 -518l168 518h178l-265 -727h-173z" />
<glyph unicode="w" horiz-adv-x="1097" d="M17 727h189l134 -495l122 495h178l126 -495l134 495h178l-230 -727h-174l-128 481l-116 -481h-180z" />
<glyph unicode="x" horiz-adv-x="770" d="M10 0l268 381l-248 346h206l146 -220l147 220h207l-250 -336l274 -391h-207l-171 261l-171 -261h-201z" />
<glyph unicode="y" horiz-adv-x="751" d="M13 727h185l186 -518l176 518h176l-309 -815q-22 -54 -44.5 -93t-49.5 -63.5t-60 -36t-75 -11.5q-22 0 -48 2t-54 12v160q28 -11 50 -14.5t38 -3.5q52 0 76 46l37 98z" />
<glyph unicode="z" horiz-adv-x="755" d="M60 119l402 459h-374v149h605l-1 -113l-406 -466h404v-148h-628z" />
<glyph unicode="{" horiz-adv-x="483" d="M52 324v100q24 0 45 12.5t36 34t24 50.5t9 63v254q0 44 14 79t38.5 58.5t56.5 36t68 12.5h103l-1 -123h-57q-18 0 -31 -4.5t-21 -15.5t-11 -27t-3 -39v-252q0 -40 -11 -71.5t-28 -55.5t-35 -40t-32 -24q14 -6 32 -17t34.5 -33t27.5 -56q12 -34 12 -82l-1 -252 q2 -42 16 -62t51 -20h57l-1 -122h-102q-37 0 -68.5 11t-55.5 34t-38 58t-14 81l2 252q0 36 -9.5 66t-25 50.5t-36.5 32t-45 11.5z" />
<glyph unicode="|" horiz-adv-x="327" d="M94 -295v1395h140v-1395h-140z" />
<glyph unicode="}" horiz-adv-x="483" d="M38 -150h58q37 0 51 20q13 20 15 62l-1 252q0 48 11.5 82t28.5 56t35 34q18 10 32 16q-14 8 -32 24t-35 40t-28.5 55.5t-11.5 71.5l1 252q0 46 -15 66t-51 20h-58v123h102q36 0 68 -12.5t56.5 -36t39 -58.5t14.5 -79l-1 -254q0 -33 9 -62.5t24.5 -51t36.5 -34t45 -12.5 v-100q-24 0 -45 -11.5t-37 -32t-25 -50.5t-9 -66l2 -252q0 -46 -14 -81t-38 -58t-56 -34t-68 -11h-103z" />
<glyph unicode="~" horiz-adv-x="815" d="M86 262q-2 58 13 102t41 73t59 44t69 15q32 0 58 -8t49 -20t43.5 -25.5t40 -25.5t39.5 -19.5t42 -7.5q38 0 52 27t13 79h123q2 -58 -13 -102t-40 -73t-59 -44t-68 -15t-60.5 8t-49 19.5t-42.5 25t-39 25.5t-39.5 19.5t-43.5 7.5q-28 0 -46.5 -27.5t-17.5 -77.5h-124z" />
<glyph unicode="&#xa2;" horiz-adv-x="772" d="M43 366q0 74 17.5 140.5t55.5 118t95 84.5t135 43l-2 132h110l2 -130q55 -6 103 -25t84.5 -52t60 -82t29.5 -113h-168q-4 29 -14.5 50.5t-24.5 36.5t-32 24t-40 13l2 -458q48 12 75 50t38 101h172q-26 -134 -94.5 -209.5t-190.5 -89.5v-150h-111l1 150q-76 8 -133 38 t-95 78t-57 112t-18 138zM211 366q-1 -37 7 -71.5t24.5 -64t42 -51t61.5 -31.5l-1 454q-38 -10 -64 -33.5t-41.5 -55t-22 -69.5t-6.5 -78z" />
<glyph unicode="&#xa3;" horiz-adv-x="812" d="M49 -20l3 142q35 12 64.5 33.5t51.5 48.5t34 58q10 32 10 66q0 11 -1 24.5t-5 26t-9.5 25t-11.5 22.5h-125v104h64q-20 38 -34 83t-14 100q0 44 13 83t35.5 70.5t54 56.5t69.5 42t81 26t88 9q82 0 147.5 -24t110.5 -71t68 -118t23 -166h-164q-2 57 -13.5 101.5t-33.5 75 t-54.5 47t-76.5 16.5q-38 0 -70 -11.5t-55.5 -32.5t-36.5 -49t-13 -61q0 -25 4.5 -48.5t13 -45.5t19 -42.5t22.5 -40.5h232v-104h-177q6 -16 9.5 -36t4.5 -38q0 -30 -6.5 -57t-17.5 -51.5t-26 -46.5t-32 -41q13 4 24.5 5t25.5 1q32 0 63.5 -6.5t60.5 -14.5t57 -14.5t56 -6.5 q26 0 51 2.5t50 9t49 17.5t48 29v-146q-26 -16 -52.5 -25.5t-54 -15t-55.5 -7t-56 -1.5q-32 0 -70 6.5t-78 14.5t-78 15t-70 7q-28 0 -55 -2t-53.5 -8t-53 -15t-55.5 -21z" />
<glyph unicode="&#xa5;" horiz-adv-x="825" d="M-3 978h206l217 -432l205 432h201l-242 -452h116l1 -124h-185l-16 -30v-48h201l1 -126h-200v-198h-174l-1 198h-197v126h196v48l-16 30h-180v124h110z" />
<glyph unicode="&#xa9;" horiz-adv-x="1114" d="M32 494q0 72 19 139t53 124t82 104t106 80.5t125 52t137 18.5q71 0 137.5 -18.5t124.5 -52t105 -80.5t81.5 -104t53 -124t18.5 -139q0 -74 -18.5 -142t-53 -125.5t-82 -104t-105 -79.5t-124 -50t-137.5 -17q-72 0 -138 17t-124 50t-106 79.5t-82 104t-53 125t-19 142.5z M153 494q0 -90 29.5 -166.5t82.5 -132.5t127 -87.5t161 -31.5q56 0 107.5 14t96.5 41t82 64t63 83.5t40 101t14 114.5t-14 114t-40 100t-62 83t-81 63t-97 40t-108 14q-88 0 -161 -31t-126.5 -86.5t-83.5 -131t-30 -165.5zM262 492q0 69 21 126.5t60 99.5t94.5 65.5 t125.5 23.5q52 0 97.5 -15t80.5 -43.5t58 -71.5t29 -97h-110q-3 26 -16.5 49t-33.5 41t-46 28t-56 10q-44 0 -79 -16t-59 -45t-36 -68t-12 -85q0 -42 13 -82t37.5 -70t60 -49t79.5 -19q28 0 53 10.5t44 27.5t31 39.5t16 46.5h112q-8 -49 -31 -90.5t-57 -71.5t-77 -47 t-92 -17q-70 0 -127 24t-97 67t-61 101q-22 60 -22 128z" />
<glyph unicode="&#xab;" horiz-adv-x="643" d="M47 326v122l237 185v-141l-134 -107l134 -105v-143zM333 326v122l237 185v-141l-134 -107l134 -105v-143z" />
<glyph unicode="&#xad;" horiz-adv-x="663" d="M63 309v133h536l1 -133h-537z" />
<glyph unicode="&#xae;" horiz-adv-x="1108" d="M32 494q0 72 19 139t53 124t82 104t106 80.5t125 52t137 18.5q71 0 137.5 -18.5t124.5 -52t105 -80.5t81.5 -104t53 -124t18.5 -139q0 -74 -18.5 -142t-53 -125.5t-82 -104t-105 -79.5t-124 -50t-137.5 -17q-72 0 -138 17t-124 50t-106 79.5t-82 104t-53 125t-19 142.5z M153 494q0 -90 29.5 -166.5t82.5 -132.5t127 -87.5t161 -31.5q56 0 107.5 14t96.5 41t82 64t63 83.5t40 101t14 114.5t-14 114t-40 100t-62 83t-81 63t-97 40t-108 14q-88 0 -161 -31t-126.5 -86.5t-83.5 -131t-30 -165.5zM342 218v556h265q44 0 77.5 -12t55.5 -34t33.5 -52 t11.5 -66q0 -28 -8.5 -51.5t-22.5 -41.5t-33.5 -29.5t-42.5 -17.5q16 -7 28 -16.5t21 -21.5t15 -27t12 -32l28 -82q6 -16 11.5 -27.5t11 -19.5t9.5 -14l8 -12h-130q-4 8 -7.5 15.5t-7 16t-7.5 18.5t-8 23l-33 85q-10 26 -30.5 42t-45.5 16h-99v-216h-112zM454 525h134h-10 q44 0 68 21.5t24 55.5q0 14 -4 28t-13 24t-22 17t-32 7h-145v-153z" />
<glyph unicode="&#xbb;" horiz-adv-x="643" d="M72 492v141l238 -185v-122l-237 -189v143l135 105zM358 492v141l238 -185v-122l-237 -189v143l135 105z" />
<glyph unicode="&#xbc;" horiz-adv-x="1167" d="M66 864q31 2 58.5 8t49.5 18t38 33q14 21 22 54h105v-607h-121v408q-30 -14 -65 -20q-35 -4 -85 -6zM250 0l556 977h130l-557 -977h-129zM652 230l288 378h94l-1 -370h82l1 -111h-82v-127h-118l-1 127h-262zM785 238h129l1 168z" />
<glyph unicode="&#xbd;" horiz-adv-x="1167" d="M66 864q31 2 58.5 8t49.5 18t38 33q14 21 22 54h105v-607h-121v408q-30 -14 -65 -20q-35 -4 -85 -6zM208 0l556 977h129l-557 -977h-128zM670 0q4 60 19 102t39.5 73t55.5 53q32 20 66 40t61 37t45 34t28 36t10 45q0 37 -24 57.5t-64 20.5q-26 0 -44 -11t-29.5 -30 t-17 -43t-5.5 -50h-128q0 52 16 96t45 76.5t70 51t92 18.5q44 0 83.5 -13t68.5 -37t46.5 -58.5t17.5 -77.5q0 -46 -18.5 -81.5t-47.5 -64t-63 -50.5t-65 -40q-11 -6 -25 -13.5t-28 -17t-28 -21.5t-25 -26h293v-106h-444z" />
<glyph unicode="&#xbe;" horiz-adv-x="1167" d="M72 582h130q1 -29 6.5 -50.5t17.5 -34.5t30.5 -19.5t44.5 -6.5q20 0 39 5.5t34.5 15.5t24.5 25t10 34q0 24 -9.5 39t-24.5 23.5t-34.5 11.5t-39.5 3h-23v103h14q17 0 33.5 5t29.5 14.5t21 22.5t8 30t-7.5 29.5t-19 21t-26.5 12.5t-31 4q-24 0 -41 -7.5t-27 -21.5 t-14 -33.5t-4 -43.5h-126q4 50 19 90t41 68t64 42.5t88 14.5q45 0 83.5 -10.5t66 -32.5t43.5 -55t16 -78q0 -14 -4.5 -30.5t-13 -32t-22 -29t-32.5 -22.5q52 -20 74.5 -53.5t24.5 -80.5q0 -48 -20 -84.5t-52.5 -60.5t-75 -36t-86.5 -12q-48 0 -90 13.5t-73 40.5t-49 68.5 t-18 97.5zM330 0l556 977h130l-557 -977h-129zM672 230l288 378h94v-370h82v-111h-82v-127h-118v127h-262zM806 238h128v170z" />
<glyph unicode="&#xd7;" horiz-adv-x="717" d="M21 641l94 90l243 -260l246 260l95 -90l-251 -266l252 -265l-94 -90l-246 260l-244 -260l-94 90l248 265z" />
<glyph unicode="&#xf7;" horiz-adv-x="833" d="M48 309v133h734v-133h-734zM310 100q0 22 9 41.5t23 34.5t33 24t39 9q22 0 41 -9t34 -24t23.5 -34.5t8.5 -41.5q0 -20 -8.5 -37.5t-22.5 -31.5t-33 -22.5t-39 -8.5q-21 0 -40.5 8t-34.5 21.5t-24 31.5t-9 39zM310 649q0 22 9 41t23 33.5t33 23.5t39 9q22 0 41 -9 t34 -23.5t24 -34t9 -40.5q0 -20 -9 -39.5t-23.5 -33.5t-33 -22.5t-40.5 -8.5q-21 0 -40 8.5t-33.5 22.5t-23.5 33.5t-9 39.5z" />
<glyph unicode="&#xe01;" horiz-adv-x="884" d="M22 582q8 34 22.5 67t38 64t55 57.5t73 46t93.5 30.5t114 11q74 0 131.5 -13.5t101 -38t73.5 -57.5t48 -72t26.5 -82.5t8.5 -88.5v-506h-170v520q0 36 -11 70t-37 62t-67.5 45t-103.5 18q-52 0 -91 -11.5t-66 -29.5t-42 -38.5t-19 -37.5q12 -12 23.5 -27.5t20 -34 t12.5 -40.5t4 -44v-452h-168v454q0 17 -3 34.5t-11 34.5t-22 32q-12 15 -34 27z" />
<glyph unicode="&#xe02;" horiz-adv-x="778" d="M18 704v136h256l135 -656l135 656h174l-186 -840h-248l-158 704h-108z" />
<glyph unicode="&#xe03;" horiz-adv-x="798" d="M30 840h160q0 -16 3 -31t10 -26t18 -18t25 -7t25 6t19 17t12.5 26t4.5 33h164v-174q0 -24 -8 -45t-23 -41t-37 -42q-22 -20 -51 -48q-20 -20 -34 -37t-23 -34t-13 -35q-6 -18 -6 -40l2 -53q0 -39 10 -69t28.5 -51t44 -31.5t56.5 -10.5q28 0 52.5 7.5t41.5 25.5t27 46 t9 70v562h173v-574q0 -74 -25 -128t-67 -89t-97 -52t-115 -17q-62 0 -118 18t-99 54t-68 90t-26 124v39q0 34 1.5 60.5t6 47.5t12 38t20 33t29.5 31.5t41 33.5q12 8 25 18.5t24.5 22t20.5 25.5t13 30q-14 -10 -35 -16.5t-43 -6.5q-14 0 -34 3t-41 12t-42 24t-37 39t-26 58 t-10 82z" />
<glyph unicode="&#xe04;" horiz-adv-x="893" d="M78 0v486q0 47 7 92.5t23.5 87t44 77t68.5 61t96.5 40t128.5 14.5q72 0 128 -14.5t97 -40t68.5 -61t44 -77t23.5 -87.5t8 -92v-486h-171v504q0 24 -4 48t-13.5 47t-25 43t-37.5 35t-51.5 23t-67.5 8t-67.5 -8t-51.5 -23t-37 -35t-24.5 -43t-14 -47t-4.5 -48v-113 q23 33 48.5 56t55.5 38t67.5 21t85.5 6v-148q-74 0 -123.5 -19t-78.5 -55.5t-42 -88.5t-13 -117v-84h-168z" />
<glyph unicode="&#xe05;" horiz-adv-x="901" d="M78 0v494q0 41 5 81t17 77t31.5 69.5t49.5 59t71 45t95 26.5l101 -110l98 110q56 -8 98 -26t73 -44t51.5 -59t33 -70t17.5 -77t5 -82v-494h-171v510q0 22 -3.5 48t-11.5 50.5t-22 45t-34 30.5l-104 -108q-4 -4 -10 -8.5t-18 -4.5q-11 0 -18 4q-8 5 -14 9l-109 108 q-19 -10 -31.5 -30t-20 -44t-10.5 -50t-3 -50v-119q23 33 48.5 56t56.5 38t68.5 21t85.5 6l-1 -148q-74 0 -123 -19t-79 -55.5t-43 -88.5t-13 -117l2 -84h-168z" />
<glyph unicode="&#xe06;" horiz-adv-x="891" d="M30 840h160q0 -16 3 -31t10 -26t18 -18t25 -7t25 6t19 17t12.5 26t4.5 33h163v-172q0 -32 -10 -58t-27 -48.5t-39 -42.5t-46 -40q-21 -18 -34.5 -32t-21.5 -30t-11 -37q-3 -20 -3 -52q0 -38 15 -73.5t43 -63t68 -44t90 -16.5q33 0 60.5 10.5t46.5 29.5t29.5 46t10.5 61 v562h171v-547q0 -69 -14 -126.5t-49 -98.5t-92 -63.5t-143 -22.5q-79 0 -140.5 26t-103.5 82l-1 -90h-163v299q0 36 1 62.5t5 47t11 37t19 31t28 29.5t38 34q12 11 24 21.5t22.5 22t19 25t14.5 32.5q-16 -8 -33 -12.5t-35 -4.5q-14 0 -34 3t-41 11t-42 23t-37 39t-26 58 t-10 82z" />
<glyph unicode="&#xe07;" horiz-adv-x="661" d="M20 504h176l129 -348q6 -17 17 -25q10 -8 24 -8q22 0 36 12t15 29v544h-119v132h286v-650q0 -56 -17 -96t-47 -65t-70 -37t-86 -12t-79.5 11t-58.5 32t-42.5 51t-31.5 66z" />
<glyph unicode="&#xe08;" horiz-adv-x="811" d="M48 584q10 62 39 112t74.5 86t108 55t140.5 19q39 0 79 -6t77.5 -19t69.5 -35t56 -54t37.5 -76.5t12.5 -102.5q0 -32 -10 -75.5t-25 -92t-35 -101t-41 -104t-43 -100t-41 -90.5h-211l-135 372h-113v134h244l114 -330q18 44 39 95t38 100.5t29 96.5q10 46 12 83 q1 82 -41.5 123t-127.5 41q-68 0 -107 -31q-40 -30 -56 -100h-184z" />
<glyph unicode="&#xe09;" horiz-adv-x="884" d="M56 570q6 57 30 108.5t69.5 91.5t114 64t162.5 24q74 0 131 -14t99 -39t69.5 -59.5t44 -75t23.5 -86.5t8 -92v-492h-162l-5 94q-45 -60 -108.5 -87t-150.5 -27q-88 0 -146.5 23.5t-93.5 66.5t-50 103t-15 132v164h168v-180q0 -34 11.5 -62.5t32 -49t50 -31.5t65.5 -11 q59 0 103 18.5t73 52t43 79t14 98.5v125q0 36 -10 72t-33 64.5t-63 46t-100 17.5q-54 0 -90 -12.5t-59 -33t-34.5 -44.5t-15.5 -48h-175z" />
<glyph unicode="&#xe0a;" horiz-adv-x="790" d="M32 684l2 131q26 9 50 16t45 12t38 7t27 2q48 0 86 -11t65 -34t39 -58t6 -81q-4 -23 -12 -43.5t-21.5 -43t-32.5 -49.5q-20 -26 -44 -61q-13 -18 -19.5 -33t-9.5 -29.5t-3 -29.5t-2 -33l1 -55q0 -39 11.5 -69t32.5 -51t49 -31q26 -11 58 -11q30 0 56 7.5t45.5 25.5 t30.5 46q10 28 10 70l2 56q0 47 -11 74.5t-31 41.5t-49 18t-65 5l-1 123q49 0 82 15t53.5 46t29.5 77q8 46 9 106h170q0 -46 -6.5 -92t-23.5 -86t-45 -72t-70 -52q30 -9 51 -23t35 -31.5t22 -37t12 -39t5 -38.5t1 -35l-1 -68q0 -49 -11.5 -89.5t-33 -72.5t-51 -55t-64.5 -39 t-73.5 -23t-78.5 -7q-62 0 -119 18t-101.5 54t-71.5 90t-27 124v68q0 32 2 56t6 43t10.5 34t16 29.5t21.5 30t29 34.5q12 16 21.5 28.5t16.5 24t12 23t7 25.5q2 12 -1 22.5t-10 18t-17 11.5q-10 5 -22 5q-14 0 -27 -2t-29 -6.5t-36 -11t-46 -15.5z" />
<glyph unicode="&#xe0b;" horiz-adv-x="841" d="M14 840h160q0 -16 3 -31t10 -26t18 -18t25 -7t25 6t19 17t12 26t4 33h164v-174q0 -24 -6 -45t-18 -40.5t-31 -41t-45 -47.5q-20 -20 -31 -45t-16 -51t-6 -53.5t-1 -51.5q0 -39 12 -69t32 -51t48 -31q28 -11 58 -11t56 7.5t45 25.5t30 46t11 70v54q0 44 -10.5 71.5t-30 43 t-46.5 20.5t-59 6l-2 123q46 3 78 19.5t52 47.5t29 75t9 102h168q0 -46 -7 -92t-23 -86t-44 -72t-71 -52q45 -14 71 -39t38.5 -54t15.5 -59q2 -30 2 -54v-66q0 -49 -12 -89.5t-33.5 -72.5t-51 -55t-64.5 -39t-74 -23t-79 -7q-41 0 -80.5 8t-74.5 24t-65 40t-52 56t-34 71.5 t-12 86.5q0 50 1 90t10 73.5t27.5 64t53.5 61.5q7 7 16.5 17t18.5 23t17 26t12 26q-18 -12 -39 -18.5t-43 -6.5q-14 0 -34 3t-41 12t-42 24t-37 39t-26 58t-10 82z" />
<glyph unicode="&#xe0c;" horiz-adv-x="1325" d="M22 582q8 34 23 67t37.5 64t54 57.5t70.5 46t87.5 30.5t106.5 11q70 0 125.5 -13.5t96.5 -38t69 -57.5t46 -72t25.5 -83t7.5 -90l1 -136q0 -52 12 -95t36 -75t59 -50.5t81 -18.5q27 0 48.5 7.5t36.5 25.5t23 46t8 70v562h170v-547q0 -74 -13.5 -132.5t-44.5 -98.5 t-82.5 -61t-128.5 -21q-36 0 -66.5 8t-57.5 23t-49 35t-39 44l-1 -90h-164v520q0 34 -10 69t-33 62.5t-61.5 45t-94.5 18.5q-46 0 -81 -10t-60 -27t-40 -38t-20 -42q31 -22 45 -61q13 -39 13 -87v-313h90v-137h-258v452q0 18 -2.5 36t-10 35t-21.5 32q-12 15 -34 27z" />
<glyph unicode="&#xe0d;" horiz-adv-x="1325" d="M22 572q8 34 22.5 69t37.5 67t54 59t70.5 47.5t88 32t106.5 11.5q70 0 125.5 -14t96.5 -39t69 -59.5t46 -75t26 -86.5t8 -92l-2 -148q0 -43 8 -72.5t23.5 -47.5t37 -26t48.5 -8q46 0 81 19.5t59 53t36.5 78.5t12.5 97v402h171l-1 -684q0 -94 -21.5 -169.5t-65 -128 t-110.5 -80.5t-159 -28q-58 0 -111 15t-95 46t-71 78t-37 111h159q8 -28 24 -49t37 -35t45 -21t47 -7q55 0 92.5 19t59.5 49t31 67t8 73l1 54q-18 -22 -41 -43t-50 -36t-57 -24.5t-64 -9.5q-77 0 -128.5 21.5t-82.5 62.5t-44 101t-12 138l-1 148q0 36 -10 71.5t-33 64 t-61.5 46.5t-95.5 18q-46 0 -81 -10t-59.5 -27t-39 -39t-20.5 -44q31 -22 45.5 -62t14.5 -90v-299h90v-137h-259v438q0 18 -3 36.5t-10.5 36t-21.5 33.5q-13 16 -34 28z" />
<glyph unicode="&#xe0e;" horiz-adv-x="919" d="M44 0v137h82v317q0 17 -3 34.5t-10.5 34.5t-21 32t-35.5 27q8 34 23 67t38 64t55 57.5t73.5 46t93 30.5t113.5 11q74 0 132 -13.5t101.5 -38t73 -57.5t48.5 -72t27 -82.5t8 -88.5v-795h-164q-12 18 -29 35.5t-41 30.5t-57 21t-78 8q-36 0 -68 -8t-61.5 -23t-56.5 -37 q-27 -24 -53 -52l1 162q18 20 43.5 37t56.5 30t66 20t74 7q36 0 66.5 -5t54.5 -12.5t43 -16.5q19 -8 32 -16v628q0 36 -11 70t-36.5 62t-67.5 45t-104 18q-52 0 -90.5 -11.5t-65 -29.5t-42 -38.5t-19.5 -37.5q12 -12 23 -27.5t18.5 -34t11.5 -40.5t4 -44v-452h-248z" />
<glyph unicode="&#xe0f;" horiz-adv-x="919" d="M44 0v137h82v317q0 17 -3 34.5t-10.5 34.5t-21 32t-35.5 27q8 34 23 67t38 64t55 57.5t73.5 46t93 30.5t113.5 11q74 0 132 -13.5t101.5 -38t73 -57.5t48.5 -72t27 -82.5t8 -88.5v-795h-168q-3 14 -10 31.5t-18.5 32.5t-26.5 25t-37 10q-20 0 -35 -10t-25.5 -24.5 t-15 -32t-4.5 -32.5h-142q0 11 -3 28t-12 33t-24 28t-37 12q-18 0 -31 -9.5t-21.5 -24t-12 -32.5t-3.5 -35h-134q0 60 16 103.5t43.5 71.5t61 41t67.5 13q50 0 88.5 -20t63.5 -57q14 18 31.5 31.5t36 22.5t37.5 13t35 4q37 0 63.5 -11t45.5 -27v624q0 36 -11 70t-36.5 62 t-67.5 45t-104 18q-52 0 -90.5 -11.5t-65 -29.5t-42 -38.5t-19.5 -37.5q12 -12 23 -27.5t18.5 -34t11.5 -40.5t4 -44v-452h-248z" />
<glyph unicode="&#xe10;" horiz-adv-x="807" d="M42 576q10 62 40 114t77 89t111 58t142 21q36 0 71 -5t67 -15q17 3 30 11.5t21.5 20.5t12.5 26t4 28h181q0 -24 -6.5 -50t-19.5 -50t-34 -44q-21 -18 -51 -30q27 -32 41 -78.5t13 -108.5q0 -32 -9 -74.5t-24.5 -91.5t-35.5 -101.5t-41.5 -104t-43.5 -100.5t-41 -91h-211 l-136 375h-112v131h244l114 -328q19 44 39.5 94t37.5 99.5t29 96.5q10 46 12 83q1 82 -41.5 123t-127.5 41q-68 0 -110.5 -35.5t-58.5 -103.5h-184zM91 -295q-2 41 4.5 72t19.5 53t31 37t36.5 23.5t36.5 12t32 3.5q32 0 57.5 -11t41.5 -30q24 23 48 32t42 9q24 0 42 -6.5 t35 -20.5v57h170v-231h-165q-4 36 -18 54q-16 18 -42 18q-12 0 -21 -5.5t-15 -15.5t-9 -23t-2 -28h-97q0 14 -3.5 27.5t-10 23.5t-16.5 15.5t-22 5.5q-13 0 -22 -6t-14.5 -16t-8.5 -23t-3 -27h-127z" />
<glyph unicode="&#xe11;" horiz-adv-x="891" d="M30 840h160q0 -17 3 -32t10 -26t18 -17.5t25 -6.5q28 0 44 22t17 60h163l-1 -60q32 23 62.5 38.5t57.5 24.5t51 13t42 4q42 0 67 -13t39 -37t19 -58t6 -76v-676h-170l-1 622q0 16 -0.5 30.5t-3 25t-6.5 16.5t-11 6q-31 0 -96 -54.5t-162 -166.5q-17 -20 -30 -35.5 t-23 -28.5t-16.5 -26t-11 -27.5t-6.5 -32t-2 -40.5v-289h-168v272q0 32 0.5 56t3 43.5t8.5 36t16 33.5t25 35t37 42q26 28 45 47t32 33t20 25.5t9 23.5q-8 -4 -18 -8.5t-21 -7.5t-22.5 -6t-20.5 -3q-14 0 -34 3t-41 11t-41.5 23t-37 39t-26.5 59t-10 83z" />
<glyph unicode="&#xe12;" horiz-adv-x="1360" d="M76 0v518q0 40 4 77.5t15 71.5t30 63.5t48.5 53.5t70 41t95.5 25l103 -106l96 106q56 -8 97.5 -24t71 -39.5t49 -53.5t31 -64.5t15.5 -72.5t4 -78v-150q0 -52 12.5 -95t36.5 -75t59 -50q34 -19 80 -19q28 0 50 7.5t36.5 25.5t21.5 46q8 28 8 70v562h172l-1 -547 q0 -74 -13.5 -132.5t-44.5 -98.5t-83 -61t-128 -21q-36 0 -67 8t-57.5 23t-48.5 35q-21 20 -39 44v-90h-164v534q0 22 -2 45t-8 44t-17.5 37.5t-31.5 25.5l-107 -102q-2 -3 -10 -7.5t-18 -4.5t-19 4t-13 8l-108 104q-17 -10 -28 -27.5t-17.5 -38.5t-9.5 -43.5t-3 -44.5 l1 -308q28 36 62.5 75t66.5 78h-60v127h244v-117l-322 -389h-160z" />
<glyph unicode="&#xe13;" horiz-adv-x="1325" d="M22 582q8 34 23 67t37.5 64t54 57.5t70.5 46t87.5 30.5t106.5 11q70 0 125.5 -13.5t96.5 -38t69 -57.5t46 -72t25 -83t7 -90v-226q0 -42 8.5 -70t24 -46t37 -25.5t48.5 -7.5q46 0 81 18.5t59 50.5t36 76q12 42 12 94l1 472h170v-840h-163l-4 90q-18 -24 -40 -44t-49 -35 t-57 -23q-32 -8 -66 -8q-77 0 -128.5 21t-82.5 61t-43.5 98t-12.5 133l-1 227q0 34 -10 69t-33 62.5t-61.5 45t-94.5 18.5q-46 0 -80.5 -9.5t-59.5 -26.5t-40 -38t-21 -43q31 -22 44.5 -61t13.5 -87l2 -313h90v-137h-258v452q0 18 -3 36t-11 35t-22 32q-12 15 -34 27z" />
<glyph unicode="&#xe14;" horiz-adv-x="901" d="M78 0v502q0 45 7 88.5t23.5 83.5t44 73.5t69 58t98 38.5t130.5 14q73 0 129.5 -14t97.5 -38.5t69 -58t45.5 -73.5t25 -83.5t7.5 -88.5v-502h-170l-1 518q0 34 -8.5 69.5t-31.5 64t-62 46t-101 17.5t-102 -17.5t-63 -46t-32 -64t-9 -69.5v-299l142 160h-66v129h254v-119 l-336 -389h-160z" />
<glyph unicode="&#xe15;" horiz-adv-x="907" d="M78 0v506q0 59 12 115.5t42.5 103.5t83 80t134.5 45l104 -104l96 104q84 -11 138 -43.5t86 -79.5t44 -104t12 -117v-506h-168v520q0 21 -5 45.5t-14 47.5t-23 43t-33 30l-105 -102q-5 -4 -11.5 -8t-16.5 -4q-11 0 -20 4q-8 4 -12 8l-108 104q-21 -10 -34.5 -29t-21.5 -42 t-11 -48.5t-3 -48.5v-299l142 158h-66v127h256v-117l-338 -389h-160z" />
<glyph unicode="&#xe16;" horiz-adv-x="868" d="M22 582q8 34 22 67t36 64t53 57.5t71.5 46t91.5 30.5q52 11 114 11q74 0 131 -13.5t99 -38t71 -57.5t47 -72t25 -82.5t7 -88.5v-506h-168v520q0 36 -10 70t-34.5 62t-66 45t-102.5 18q-52 0 -89.5 -11.5t-62.5 -29.5t-39 -39t-18 -37q16 -10 27 -26t18.5 -34.5t11 -40 t3.5 -45.5v-315h90v-137h-258v454q0 17 -3 34.5t-11 34.5t-22 32q-12 15 -34 27z" />
<glyph unicode="&#xe17;" horiz-adv-x="884" d="M78 0v840h164v-102q44 60 108 91t151 31q88 0 147 -24t94.5 -67t49.5 -103t14 -132l1 -534h-168v551q0 34 -11.5 62.5t-32 48.5t-49.5 31t-65 11q-60 0 -103.5 -18.5t-72.5 -52t-43 -78.5t-14 -99v-456h-170z" />
<glyph unicode="&#xe18;" horiz-adv-x="839" d="M76 246v176h168v-176q0 -34 16 -57t41 -37t56 -20.5t61 -6.5q28 0 59 5t57 18.5t43 37t17 60.5q0 19 -3 33.5t-11 26.5t-23.5 23t-40.5 22t-60 23q-36 12 -86 26q-40 12 -77.5 24t-70.5 26t-60.5 32t-46.5 40.5t-29 50.5t-9 64q1 38 15 69.5t36.5 55.5t53 42t65.5 29.5 t72 17t75 5.5q75 0 139 -15t110.5 -49t73.5 -87t27 -127h-170q0 38 -12.5 64t-35 43t-53.5 24.5t-71 7.5q-32 0 -60 -4.5t-49.5 -13.5t-34 -24t-12.5 -35q0 -14 12 -27t31 -24t43 -20t47.5 -16t44 -12t34.5 -9q48 -13 90 -26t76 -29t61 -36.5t45 -47.5t27 -63t9 -84 q0 -47 -13 -84.5t-37 -67t-56 -50.5t-71 -34.5t-82 -19.5t-88 -6q-46 0 -88.5 6t-80.5 20t-70 35t-55 50t-36 67t-13 84z" />
<glyph unicode="&#xe19;" horiz-adv-x="884" d="M76 305v535h168v-551q0 -34 11.5 -62.5t32 -49t50 -31.5t65.5 -11q59 0 103 18.5t73 52t43 79t14 98.5v457h171v-840h-164l-3 102q-44 -60 -108 -91t-151 -31q-88 0 -146.5 23.5t-93.5 66.5t-50 103t-15 132z" />
<glyph unicode="&#xe1a;" horiz-adv-x="884" d="M77 354v486h169v-502q0 -36 9.5 -73t32 -67t60 -48.5t94.5 -18.5t94.5 18.5t60 48.5t32 67t9.5 73v502h169v-490q0 -47 -7 -92.5t-23.5 -86.5t-43.5 -76t-67 -60t-95 -39t-128 -14t-129 14t-96 40t-67 61t-43.5 77t-23.5 88t-7 92z" />
<glyph unicode="&#xe1b;" horiz-adv-x="884" d="M76 354l2 486h168v-502q0 -36 9 -73t31.5 -67t60 -48.5t94.5 -18.5t94.5 18.5t60 48.5t31.5 67t9 73v868h170v-856q0 -47 -7 -92.5t-23 -86.5t-43 -76t-67.5 -60t-96 -39t-127.5 -14q-73 0 -128.5 14t-96.5 40t-68 61t-43 77t-23 88t-7 92z" />
<glyph unicode="&#xe1c;" horiz-adv-x="948" d="M76 238l1 602h279l-2 -138h-110v-438q0 -38 5 -64t13.5 -43t22 -24.5t30.5 -7.5q27 0 42 14t21.5 38.5t8 57.5t1.5 70v133h168v-133q0 -38 2 -70.5t10 -57t24 -38.5q14 -14 42 -14q17 0 29.5 7.5t21.5 24.5t13 43t4 64v576h168v-602q0 -66 -15 -114t-43 -79t-67 -46 t-88 -15q-60 0 -108.5 25t-76.5 71q-24 -50 -67 -73t-109 -23q-50 0 -90.5 15t-69 46t-44.5 79t-16 114z" />
<glyph unicode="&#xe1d;" horiz-adv-x="948" d="M76 238l2 602h278l-2 -138h-110v-438q0 -38 5 -64t13.5 -43t22 -24.5t30.5 -7.5q27 0 42 14t21.5 38.5t8 57.5t1.5 70v133h168v-133q0 -38 2 -70.5t10 -57t24 -38.5q14 -14 42 -14q17 0 30 7.5t21.5 24.5t12.5 43t4 64v942h168v-968q0 -66 -15 -114t-43 -79t-67 -46 t-88 -15q-60 0 -108.5 25t-76.5 71q-24 -50 -67 -73t-109 -23q-50 0 -90.5 15t-69 46t-44.5 79t-16 114z" />
<glyph unicode="&#xe1e;" horiz-adv-x="1112" d="M24 840h186l122 -602l130 602h187l131 -596l121 596h184l-213 -840h-184l-137 596l-127 -596h-186z" />
<glyph unicode="&#xe1f;" horiz-adv-x="1112" d="M24 840h186l122 -602l130 602h187l131 -596l182 962h184l-274 -1206h-184l-137 596l-127 -596h-186z" />
<glyph unicode="&#xe20;" horiz-adv-x="919" d="M44 0v137h82v317q0 17 -3 34.5t-10.5 34.5t-21 32t-35.5 27q8 34 23 67t38 64t55 57.5t73.5 46t93 30.5t113.5 11q74 0 132 -13.5t101.5 -38t73 -57.5t48.5 -72t27 -82.5t8 -88.5v-506h-170v520q0 36 -11 70t-37 62t-68 45t-104 18q-52 0 -90.5 -11.5t-65 -29.5 t-42 -38.5t-19.5 -37.5q12 -12 23 -27.5t19 -34t13 -40.5q4 -22 3 -44v-452h-249z" />
<glyph unicode="&#xe21;" horiz-adv-x="884" d="M78 0v840h170l-2 -457q0 -53 15 -98.5t44 -79t73 -52t103 -18.5q36 0 65.5 11t49.5 31.5t31 48.5t11 63v551h168v-535q0 -72 -14.5 -132t-50 -103t-94.5 -66.5t-147 -23.5q-86 0 -149 31t-109 91v-102h-164z" />
<glyph unicode="&#xe22;" horiz-adv-x="862" d="M62 264q0 32 4.5 61t15.5 53t29 44q18 18 46 32q-30 17 -48 38.5t-28 45.5t-13.5 48.5t-3.5 46.5q0 41 11 72t29 54t42.5 38.5t51 25t54.5 13.5t53 4h127l-1 -144h-92q-12 0 -29 -1.5t-33.5 -9t-27.5 -22.5t-11 -41q0 -28 9 -46t24 -28.5t35 -15t43 -6.5h81v-141h-82 q-24 -1 -44.5 -6t-35 -17t-22.5 -34q-6 -22 -6 -58q0 -38 15 -65t41 -45.5t59.5 -27.5t70.5 -9q40 0 75 10.5t60.5 34.5t40 62t13.5 94v516h168v-545q0 -77 -28.5 -136t-77 -99t-113.5 -60t-138 -20q-46 0 -90.5 7t-85 23t-74.5 39t-59.5 55t-40 72t-14.5 88z" />
<glyph unicode="&#xe23;" horiz-adv-x="745" d="M41 290h169q0 -43 14 -74.5t36 -51.5t50 -30t56 -10q29 0 56.5 5t48.5 17t34 34t13 58q-1 23 -14 42.5t-34.5 35t-50.5 27t-61 20.5q-32 8 -66.5 16.5t-66 21.5t-60 30t-49.5 42t-33 58t-12 76q0 47 12.5 84t35 65t52 47.5t64 31.5t71 17t72.5 4q64 -2 118 -19t93 -51 t61 -84t22 -116h-170q-1 23 -6.5 46.5t-18 42.5t-34 31t-55.5 13q-42 2 -69.5 -6.5t-43.5 -22.5t-22 -33.5t-6 -40.5q0 -20 12.5 -36t35 -29t52 -23t61.5 -18q70 -19 124 -42t91 -53t55.5 -68.5t18.5 -90.5q0 -53 -12.5 -93.5t-35 -71t-53 -51t-65.5 -33t-74 -18t-79 -5.5 q-44 0 -86 7.5t-80 23.5t-70 40.5t-55 58.5t-35 78t-11 98z" />
<glyph unicode="&#xe24;" horiz-adv-x="868" d="M22 582q8 34 22 67t36 64t53 57.5t71.5 46t91.5 30.5q52 11 114 11q74 0 131 -13.5t99 -38t71 -57.5t47 -72t25 -82.5t7 -88.5v-778h-168v792q0 36 -10 70t-34.5 62t-66 45t-102.5 18q-52 0 -89.5 -11.5t-62.5 -29.5t-39 -39t-18 -37q16 -10 27 -26t18.5 -34.5t11 -40 t3.5 -45.5v-315h90v-137h-258v454q0 17 -3 34.5t-11 34.5t-22 32q-12 15 -34 27z" />
<glyph unicode="&#xe25;" horiz-adv-x="864" d="M53 223q0 69 24.5 118t67.5 83t99.5 53t119 28.5t127.5 10.5t125 -2v78q0 40 -15 65t-39 37.5t-54 16.5t-60 4q-40 0 -74 -8t-59 -26.5t-40 -49.5t-18 -76h-172q2 56 16 100.5t39 77.5t59.5 57t75.5 38t87 21t95 7q39 0 78.5 -5t76 -16t68.5 -29.5t55.5 -46t37 -65.5 t13.5 -88v-606h-170v385q-16 2 -42 3t-56.5 0t-64 -4.5t-66.5 -11t-62.5 -19t-52 -28.5t-35.5 -40t-12 -53q0 -32 13.5 -53t35 -34t49 -18.5t55.5 -5.5q23 0 47.5 4t50.5 10v-133q-35 -9 -65.5 -14.5t-64.5 -5.5q-59 0 -112.5 13t-93.5 41.5t-64 74.5t-23 112z" />
<glyph unicode="&#xe26;" horiz-adv-x="919" d="M44 0v137h82v317q0 17 -3 34.5t-10.5 34.5t-21 32t-35.5 27q8 34 23 67t38 64t55 57.5t73.5 46t93 30.5t113.5 11q74 0 132 -13.5t101 -38t73 -57.5t48.5 -72t27 -82.5t8.5 -88.5v-778h-170v792q0 36 -11.5 70t-37 62t-67.5 45t-104 18q-52 0 -90.5 -11.5t-65 -29.5 t-42 -38.5t-19.5 -37.5q12 -12 23 -27.5t19 -34t13 -40.5q4 -22 3 -44v-452h-249z" />
<glyph unicode="&#xe27;" horiz-adv-x="786" d="M54 542q2 70 27 129t67 101t101 65t131 23q90 0 157 -32t110.5 -89.5t65 -138.5t21.5 -180t-21 -180t-65 -138.5t-110 -88.5q-68 -31 -158 -31q-72 0 -131 23t-101 65t-66 100t-27 129h170q3 -46 15.5 -79.5t33 -54.5t47.5 -31.5t58 -10.5q42 0 75 17.5t56.5 54.5 t36.5 93t13 132t-13 133t-36 93.5t-57 54.5q-32 18 -74 18q-32 0 -59 -10.5t-47 -31.5t-33 -55t-17 -80h-170z" />
<glyph unicode="&#xe28;" horiz-adv-x="893" d="M78 0v486q0 47 7 92.5t23.5 87t44 77t68.5 61t96.5 40t128.5 14.5q48 0 88 -6t72 -18q17 1 30 9.5t21.5 21t13 28t5.5 31.5h180q0 -24 -7 -52t-21 -53.5t-36 -46t-52 -32.5q20 -26 34 -56t23 -62.5t13.5 -67t4.5 -68.5v-486h-170v504q0 24 -4.5 48t-13.5 47t-25 43 t-38 35t-51.5 23t-67.5 8q-57 0 -95.5 -18.5t-62 -48t-33.5 -66t-10 -71.5v-113q23 33 48.5 56t56 38t68 21t85.5 6v-148q-74 0 -123 -19t-79 -55.5t-42 -88.5t-12 -117v-84h-168z" />
<glyph unicode="&#xe29;" horiz-adv-x="884" d="M77 340v500h167v-514q0 -36 8 -71.5t29 -64.5t59 -47t100 -18t100 18t59 47t28.5 64.5t7.5 71.5v65h-243v195h160v-60h84v314h170v-314h76l-1 -135h-75v-51q0 -45 -6 -89.5t-21.5 -84t-42 -73.5t-66.5 -58.5t-96.5 -38.5t-131.5 -14q-76 0 -132.5 14t-97 38.5t-67 58.5 t-42 73.5t-21 84t-5.5 89.5z" />
<glyph unicode="&#xe2a;" horiz-adv-x="864" d="M53 223q0 69 24.5 118t67.5 83t99.5 53t119 28.5t127.5 10.5t125 -2v78q0 40 -15 65t-38.5 37.5t-53 16.5t-59.5 4q-40 0 -74 -7.5t-59.5 -26t-41 -49t-17.5 -75.5h-172q2 56 16.5 100.5t40 77.5t59.5 57t75 38t87.5 21t95.5 7q37 0 75 -5q39 -5 73 -15q18 2 32 10t23 20 t14 26q5 16 7 30h180q0 -23 -6.5 -50t-20.5 -52t-36.5 -45.5t-52.5 -30.5q16 -28 27 -63t11 -77v-606h-170v385q-16 2 -42 3t-56.5 0t-64 -4.5t-66.5 -11t-62.5 -19t-52 -28.5t-35.5 -40t-12 -53q0 -32 13.5 -53t35 -34t49 -18.5t55.5 -5.5q23 0 47.5 4t50.5 10v-133 q-35 -9 -65.5 -14.5t-64.5 -5.5q-59 0 -112.5 13t-93.5 41.5t-64 74.5t-23 112z" />
<glyph unicode="&#xe2b;" horiz-adv-x="866" d="M78 0v840h166v-295l344 295h245l-187 -158q44 -18 71.5 -47t43 -67t21.5 -85t6 -100v-383h-168v400q0 30 -5 58t-17 52t-31 41t-46 23l-275 -236v-338h-168z" />
<glyph unicode="&#xe2c;" horiz-adv-x="1112" d="M20 840h188l103 -617l142 485h174l149 -487q8 42 16 81.5t15.5 78.5l15 78t15.5 79q7 31 8.5 52.5t1.5 40.5q0 22 -5 38.5t-17 28t-32 17.5t-48 6l1 119q40 2 72 10t55.5 23.5t37.5 40t18 59.5h192q-6 -44 -20 -78.5t-34.5 -59.5t-47 -41t-56.5 -24q22 -19 35 -43.5 t18 -51.5t3 -57q0 -29 -8 -59l-138 -559h-186l-152 482l-143 -482h-186z" />
<glyph unicode="&#xe2d;" horiz-adv-x="852" d="M48 418v14v21v26h378v-133h-205q2 -50 18 -91t43 -70t63.5 -45.5t80.5 -16.5q48 0 87 19.5t66 57.5t42 93t15 125q0 144 -52 220.5t-158 76.5q-40 0 -74 -9.5t-60 -29t-42 -47.5t-22 -64h-178q14 67 43 121.5t75.5 93t110 59.5t147.5 21q70 0 125.5 -15.5t98 -44 t72.5 -68.5t49 -89t28 -106t9 -119q0 -58 -9 -113t-28 -104t-49 -89t-72.5 -69t-98 -45t-123.5 -16q-70 0 -125 16t-97.5 44.5t-72.5 69t-49 88.5t-27.5 103.5t-8.5 114.5z" />
<glyph unicode="&#xe2e;" horiz-adv-x="852" d="M48 420v59h378l2 -131h-205q2 -50 17.5 -91.5t41.5 -71t63 -45t81 -15.5q48 0 87 19.5t66 57.5t42 93t15 125q0 143 -52 219t-158 76q-79 0 -129.5 -38.5t-68.5 -111.5h-178q14 67 43 122t75 94t110 60t147 21q40 0 77 -6t69 -18q16 2 28.5 9t20.5 19t12 27t5 31h183 q0 -24 -7 -49t-21 -48.5t-34 -43t-48 -31.5q24 -30 42 -68t30 -80t18 -89q8 -47 8 -95q0 -58 -9 -113t-28 -104t-49 -89t-72.5 -69t-98 -45t-123.5 -16q-70 0 -125 16t-97 44.5t-72 69t-49 88.5t-28 103.5t-9 114.5z" />
<glyph unicode="&#xe2f;" horiz-adv-x="868" d="M58 600q0 45 12 80.5t32.5 62t48.5 45t59.5 30t65.5 16.5q34 6 66 6h135l-1 -142h-135q-56 0 -81.5 -24.5t-26.5 -75.5q0 -24 7.5 -48.5t26.5 -43.5t51.5 -31t82.5 -12q108 0 164.5 39.5t56.5 123.5v214h168v-840h-168v391q-40 -34 -95.5 -50.5t-120.5 -16.5 q-86 0 -151 19t-109 55.5t-66 87.5t-22 114z" />
<glyph unicode="&#xe30;" horiz-adv-x="506" d="M76 131v191h155v-62h202v-129h-357zM76 547v193h156v-62h200v-131h-356z" />
<glyph unicode="&#xe31;" d="M-527 968v202h155v-72h400l2 -130h-557z" />
<glyph unicode="&#xe32;" horiz-adv-x="715" d="M22 563q0 48 12 88t33 72.5t50.5 57.5t64 41.5t72.5 25t78 8.5q65 0 121 -18t96.5 -54t64.5 -91q22 -55 22 -130l1 -563h-168l-1 534q1 90 -34.5 132t-101.5 42q-58 0 -94 -36t-40 -109h-176z" />
<glyph unicode="&#xe33;" horiz-adv-x="715" d="M-338 1112q0 33 12 62t33 50.5t49.5 34.5t61.5 13q32 0 61 -13t51 -34.5t35.5 -50.5t13.5 -62t-13 -62t-35 -50.5t-51.5 -34.5t-61.5 -13t-60.5 13t-50 34.5t-33.5 50.5t-12 62zM-236 1112q0 -12 4.5 -22t12 -18t17.5 -13t21 -5q12 0 22.5 5t18.5 13t12 18t4 22t-4.5 22 t-12 18t-18.5 13t-22 5q-12 0 -22 -5t-17.5 -13t-12 -18t-3.5 -22zM22 563q0 48 12 88t33 72.5t50.5 57.5t64 41.5t72.5 25t78 8.5q65 0 121 -18t97 -54t64.5 -91t22.5 -130v-563h-168v534q1 90 -35 132t-102 42q-58 0 -94 -36t-40 -109h-176z" />
<glyph unicode="&#xe34;" d="M-811 966l67 134h666v-134h-733z" />
<glyph unicode="&#xe35;" d="M-811 966l67 134h506v118h159l1 -252h-733z" />
<glyph unicode="&#xe36;" d="M-811 966l67 134h392l-1 14q0 30 11.5 57t31 47t46 32t56.5 12t57 -12t47.5 -32t32 -47t11.5 -57q0 -31 -11 -57.5t-31 -46.5t-46.5 -32t-56.5 -12h-606zM-259 1114q0 -10 4.5 -20t11.5 -16.5t16.5 -10.5t19.5 -4t20 4t17 10.5t11.5 16.5t4.5 20q0 24 -16 39t-37 15 q-10 0 -20 -4t-17 -11.5t-11 -17t-4 -21.5z" />
<glyph unicode="&#xe37;" d="M-811 966l67 134h290l-2 118h152l1 -118h73v118h151l1 -252h-733z" />
<glyph unicode="&#xe38;" d="M-308 -226l2 130h230v-314h-158v184h-74z" />
<glyph unicode="&#xe39;" d="M-608 -226l2 130h234l-1 -115q0 -40 16.5 -61t52.5 -21q34 0 52 21t18 61l1 115h157v-115q0 -44 -12 -82.5t-39 -67.5t-70 -46t-105 -17q-60 0 -102.5 14t-70 40.5t-41.5 63.5q-16 36 -18 80h-74z" />
<glyph unicode="&#xe3a;" d="M-286 -184q0 24 9 44.5t24.5 36t36 24.5t44.5 9q23 0 44 -9t36.5 -24.5t24.5 -36t8 -44.5q0 -23 -8.5 -43.5t-23.5 -36t-35.5 -24.5t-43.5 -9q-24 0 -45 9t-37 24.5t-25 36t-9 43.5z" />
<glyph unicode="&#xe3e;" />
<glyph unicode="&#xe3f;" horiz-adv-x="952" d="M90 0v978h304v96h156v-98q60 -3 116 -15.5t100 -39.5t70 -73q28 -47 28 -119t-26 -122.5t-81 -85.5q36 -15 63.5 -38.5t46.5 -53t28.5 -64.5t9.5 -75q0 -36 -9 -71.5t-27.5 -68t-45.5 -59.5t-63 -47.5t-80 -32t-96 -11.5h-34v-102h-156v102h-304zM264 830l1 -255h129v255 h-130zM265 146h129v280h-129v-280zM550 146h14q40 0 71 10t52 30t32 47t11 63q0 38 -15 63t-41 39.5t-58 21t-66 6.5v-280zM550 577q73 8 105.5 39t32.5 87q0 40 -9 65t-27 38.5t-44 17.5t-58 6v-253z" />
<glyph unicode="&#xe40;" horiz-adv-x="358" d="M94 0v840h170v-840h-170z" />
<glyph unicode="&#xe41;" horiz-adv-x="641" d="M94 0v840h170v-840h-170zM377 0v840h170v-840h-170z" />
<glyph unicode="&#xe42;" horiz-adv-x="426" d="M-6 1090l31 128h410l76 -134h-263q20 -24 30 -53t10 -60v-834h88l1 -137h-256v966q0 29 -10.5 52.5t-27.5 39t-40 24t-49 8.5z" />
<glyph unicode="&#xe43;" horiz-adv-x="426" d="M-48 996q0 66 20 115t53 81t76.5 48t90.5 16q42 0 81 -10t69.5 -31t49.5 -55q18 -32 18 -80q-1 -26 -9.5 -46t-22 -37.5t-30 -34t-31.5 -36.5q-11 -13 -17 -29.5t-9 -34.5t-3 -36v-34v-655h88l1 -137h-256l-1 792q-1 34 2 61t11 50.5t22.5 45t38.5 45.5q6 6 16 15 t20 19.5t18 21.5t8 21q0 9 -4 18t-11 17t-19 12t-31 4q-20 0 -35.5 -9t-25.5 -25t-15 -40t-5 -52h-158z" />
<glyph unicode="&#xe44;" horiz-adv-x="426" d="M-103 1084l75 134h410l33 -128q-26 0 -49.5 -8.5t-40.5 -24t-27 -38.5t-10 -53v-829h88l1 -137h-256v971q1 30 9 59q8 30 28 54h-261z" />
<glyph unicode="&#xe45;" horiz-adv-x="715" d="M22 563q0 48 12 88t33 72.5t50.5 57.5t64 41.5t72.5 25t78 8.5q65 0 120.5 -18t96.5 -54t64 -92t22 -130v-834h-168v806q1 90 -34 132t-101 42q-58 0 -94 -36t-40 -109h-176z" />
<glyph unicode="&#xe46;" horiz-adv-x="819" d="M54 528q0 62 11 115t40 94.5t79 70.5t130 42l88 -92l79 90q58 -5 100.5 -21t71 -40.5t46 -56.5t26.5 -68t12 -76t3 -82v-774h-171v790q0 16 -0.5 33t-1.5 34t-4 33t-8 29t-14 22t-21 13l-88 -94q-6 -5 -14 -8.5t-16 -3.5q-11 0 -18.5 3.5t-11.5 8.5l-91 92 q-34 -22 -48 -62t-10 -90q0 -18 3.5 -36t13.5 -32t26 -23t40 -9h34l1 -148h-35q-50 0 -96 14t-81 44t-55 76t-20 112z" />
<glyph unicode="&#xe47;" d="M-725 1161q0 51 18 87t48.5 60t71.5 35t85 11h406v-121h-392q-30 0 -47.5 -7.5t-26.5 -18.5t-11.5 -23.5t-2.5 -22.5q0 -6 2 -15.5t7 -18.5t14.5 -15t25.5 -6q26 0 39.5 17t12.5 51h115q-4 -68 48 -68q28 0 36 18t4 50h124q7 -54 -2 -91t-29.5 -60t-50.5 -33.5t-64 -10.5 q-22 0 -41 5.5t-34 15.5t-27 22t-20 26q-8 -14 -22 -26t-31 -22t-37 -15.5t-42 -5.5q-52 0 -85.5 17.5t-54 44t-29 58.5t-8.5 62z" />
<glyph unicode="&#xe48;" d="M-237 1558h156l1 -245h-156z" />
<glyph unicode="&#xe49;" d="M-466 1560h208l2 -124q40 0 72 10t54 27t33 39t11 48h145q0 -48 -19.5 -93t-61 -80t-104 -56t-146.5 -21h-115v126h-77z" />
<glyph unicode="&#xe4a;" d="M-494 1310q-4 56 6 97t29 68t45 40t54 13t52 -14t42 -38q15 24 41.5 38t55.5 14q39 0 70 -22t43 -68q8 10 15 23t12 28.5t8 33t4 33.5h133q0 -25 -6 -51.5t-17.5 -52.5t-27 -49.5t-34 -42.5t-39.5 -32q-21 -14 -43 -18h-107q0 11 -1 27t-4 30.5t-10 25t-20 10.5 q-9 0 -15 -4.5t-10 -11.5t-5.5 -17t-1.5 -20h-80q0 22 -7.5 37.5t-21.5 15.5q-12 0 -18.5 -9.5t-10 -24t-4.5 -30.5q-1 -17 -1 -29h-126z" />
<glyph unicode="&#xe4b;" d="M-352 1415l2 121h116v102h152v-102h118l-1 -121h-119l2 -105h-152l-1 105h-117z" />
<glyph unicode="&#xe4c;" d="M-346 1214q-1 58 19.5 103.5t60.5 77.5t96 49.5t128 17.5v-126q-75 0 -115.5 -29t-38.5 -93h-150z" />
<glyph unicode="&#xe4d;" d="M-338 1112q0 33 12 62t33 50.5t49.5 34.5t61.5 13q32 0 61 -13t51 -34.5t35.5 -50.5t13.5 -62t-13 -62t-35 -50.5t-51.5 -34.5t-61.5 -13t-60.5 13t-50 34.5t-33.5 50.5t-12 62zM-236 1112q0 -12 4.5 -22t12 -18t17.5 -13t21 -5q12 0 22.5 5t18.5 13t12 18t4 22t-4.5 22 t-12 18t-18.5 13t-22 5q-12 0 -22 -5t-17.5 -13t-12 -18t-3.5 -22z" />
<glyph unicode="&#xe4e;" d="M-386 968q0 40 9 76.5t27 66t46 51.5t67 32q6 29 23.5 53.5t46.5 42.5t70.5 27.5t96.5 9.5l1 -129q-34 0 -55.5 -5t-33 -16t-16 -26t-4.5 -35l2 -34h-42q-27 0 -43.5 -8t-26.5 -23t-13 -36t-3 -47h-152z" />
<glyph unicode="&#xe4f;" horiz-adv-x="1038" d="M73 418q0 61 15.5 117.5t44.5 105t70 89t90 68.5t106 44t119 16q60 0 116 -16t104.5 -44t88.5 -68.5t68.5 -89t44.5 -104.5q16 -57 16 -118t-16 -117.5t-44.5 -105.5t-69 -89t-89 -68.5t-104.5 -43.5q-57 -16 -117 -16q-62 0 -118 15.5t-105.5 44t-90 68.5t-69 89 t-44.5 105.5t-16 117.5zM194 422q0 -66 25.5 -124.5t69 -102t102.5 -69.5t126 -26q44 0 84.5 12t75.5 33t64 50t49.5 65t32 77t11.5 85t-11 85t-32 76t-50 64t-64.5 49.5t-76 32t-84.5 11.5q-68 0 -126 -25t-101.5 -68t-69 -101t-25.5 -124zM280 422q0 47 19 89t51 73.5 t75 50.5t91 19q47 0 88.5 -19t73 -50.5t50 -73.5t18.5 -89q0 -48 -18 -91t-49.5 -74.5t-73 -50t-89.5 -18.5t-91 18.5t-75 50t-51 74.5t-19 91zM389 422q0 -27 10 -50.5t26.5 -40.5t40.5 -27q22 -9 50 -9q26 0 48 9.5t38.5 26.5t26 40.5t8.5 50.5q0 26 -9.5 48t-25.5 39 t-38 26.5t-47 9.5q-28 0 -51.5 -9.5t-40.5 -26.5t-26.5 -39t-9.5 -48z" />
<glyph unicode="&#xe50;" horiz-adv-x="911" d="M59 366q0 90 27 160.5t77.5 118t124.5 72.5t166 25t166 -25t125 -72.5t79 -118t28 -160.5q0 -103 -32 -175.5t-85.5 -118.5t-125 -67t-153.5 -21q-54 0 -105 9t-95 29t-80 50t-62.5 73t-41 98t-13.5 123zM226 358q0 -51 16.5 -93.5t46 -74.5t71.5 -49.5t95 -17.5 q52 0 94.5 17.5t72 49.5t46 74.5t16.5 93.5q0 66 -18.5 112.5t-49.5 76t-72.5 42.5t-87.5 13t-88 -13t-73.5 -42.5t-50 -76t-18.5 -112.5z" />
<glyph unicode="&#xe51;" horiz-adv-x="905" d="M5 110l133 109q26 -29 56 -48t63.5 -31t70 -16.5t74.5 -4.5q59 0 109.5 17.5t86.5 51.5t57 84t21 115q0 49 -15 90t-43 71t-70 46t-100 16q-47 0 -86 -11t-66.5 -30t-43 -43.5t-15.5 -50.5q0 -24 10.5 -46.5t36.5 -38.5t67 -23t103 1v-122q-32 -8 -58 -10q-24 -2 -46 -2 q-58 0 -110.5 16t-91 46.5t-61.5 73t-21 93.5q0 50 15 90.5t41 72t62 54t78 36.5t88 21q48 7 94 7q84 0 157 -20t127.5 -62t86 -109.5t32.5 -163.5q0 -90 -30.5 -164.5t-87 -127.5t-138.5 -82t-185 -29q-47 0 -96.5 3t-101.5 15.5t-103 37.5q-51 24 -100 68z" />
<glyph unicode="&#xe52;" horiz-adv-x="1034" d="M-6 702l27 142q48 0 87 -13t67.5 -41t43.5 -69t15 -99l1 -302q0 -39 18.5 -73.5t55.5 -59.5t93 -39.5t130 -14.5q70 0 120.5 13.5t83 35.5t48.5 51t16 60v203q0 22 -5.5 38t-15 28t-22.5 20t-29 12l-110 -98l-110 92q-12 -1 -23 -6.5t-19.5 -16.5t-13.5 -27 q-6 -16 -6 -38l2 -46q0 -20 1 -41t6 -37.5t16 -27t31 -10.5h63l-1 -131h-78q-48 0 -82 12.5t-56 32.5t-35 45.5t-19 52.5t-8 53.5t-3 46.5l-1 40q0 47 18 88.5t51 75t79 56.5q46 22 104 30l84 -70l72 70q58 -3 108 -21.5t87.5 -49t58.5 -71.5q20 -40 20 -88v-192 q0 -58 -14 -104.5t-39.5 -83t-61 -63t-78.5 -44t-92 -25.5t-99 -8h-82q-103 0 -183.5 24t-135.5 69t-83 109t-28 142l1 264q-1 55 -19 79.5t-56 24.5z" />
<glyph unicode="&#xe53;" horiz-adv-x="927" d="M64 332l1 55q-1 86 19 149t58.5 105.5t94 66.5t125.5 32l101 -86l107 86q76 -4 130.5 -29t90.5 -63t53 -88q18 -50 18 -104v-456h-168v456q0 24 -9 47t-23 40t-32 28q-20 11 -38 13l-130 -107l-126 107q-17 -4 -35.5 -15t-33.5 -34t-25 -58t-10 -88v-55q0 -23 0.5 -46.5 t3 -46t7.5 -42t14.5 -33.5t24.5 -22.5t37 -8.5q7 0 18.5 0.5t26 1.5t32 3t36.5 6l-2 -140q-12 -4 -32 -7t-43 -5t-45 -3t-38 1q-52 6 -88 25.5t-59 47t-35 61.5t-18 69t-7 70.5t-1 66.5z" />
<glyph unicode="&#xe54;" horiz-adv-x="927" d="M64 400q0 84 28 145t80 102t126 60.5t166 19.5h141q28 0 46 8.5t28.5 23.5t14.5 35q4 22 4 46h172q0 -30 -4.5 -60.5t-15.5 -59t-29.5 -53.5t-47.5 -43.5t-69 -29t-94 -10.5h-161q-50 0 -90 -11t-68.5 -31t-43.5 -50.5t-15 -69.5v-96q0 -39 11 -73t35 -58.5t61 -38.5 t87 -14h10q-22 22 -37 52t-16 66q0 12 2 29.5t10 37t23.5 39t43.5 35t70 25.5t102 10v-141q-32 0 -50 -5.5t-26.5 -13t-10 -16t-1.5 -14.5q0 -21 8.5 -39.5t22.5 -33.5t31 -23t33 -8h227l2 -142h-460q-68 0 -120.5 14t-91 38t-64.5 56t-41 68t-22 72q-7 38 -6 72z" />
<glyph unicode="&#xe55;" horiz-adv-x="927" d="M64 324v80q0 70 19 122.5t53.5 90t82 61.5t103.5 39q-1 4 -2 11q0 8 -1 14q0 30 12.5 58t33.5 48t49 32.5t60 12.5q34 0 63 -12.5t50 -32.5t33 -48q10 -28 10 -58v-8l1 -2v-1q20 4 32.5 14.5t20.5 24.5t11 32t3 38h172q0 -30 -4.5 -61t-15 -59t-29.5 -52.5t-48 -43 t-69 -28.5t-94 -10h-153q-50 0 -91.5 -9t-71 -28.5t-46 -50t-17.5 -74.5l2 -96q0 -38 11 -72t34.5 -59.5t60.5 -40t87 -14.5h10q-22 22 -37 52t-16 66q0 12 2 29.5t10 37t23.5 39t43.5 35t70 25.5t102 10v-141q-32 0 -50 -5.5t-26.5 -13t-10 -16t-1.5 -14.5q0 -21 8.5 -39.5 t22.5 -33.5t31 -23t33 -8h227l2 -142h-460q-68 0 -120 14t-91 39t-64.5 57t-41 68t-22.5 73t-7 73zM424 742q0 -24 14 -39t36 -15q25 0 38.5 15t13.5 39q1 24 -13 38t-39 14q-22 0 -35.5 -14t-14.5 -38z" />
<glyph unicode="&#xe56;" horiz-adv-x="940" d="M18 731l134 78l82 -131q22 10 50 21t60.5 19t71 14t82.5 8q74 2 131 -11t100 -36.5t72 -57t47 -73t26 -84t8 -89.5v-51q0 -47 -11.5 -91.5t-34 -84.5t-57 -72t-80 -55t-102 -35t-124.5 -10q-75 2 -137 20t-106.5 50.5t-69 78t-24.5 101.5q0 53 18 91.5t51 63t79.5 36 t104.5 11.5h69l2 -128h-64q-28 0 -46 -6.5t-28.5 -17t-14 -25.5t-3.5 -31q0 -21 13 -39.5t36 -32.5t56 -22t73 -9q44 -1 85.5 12t73 39t51 64.5t19.5 89.5l-1 49q0 54 -13 94.5t-40 66.5t-65.5 38t-87.5 12q-39 -1 -78.5 -7.5t-79.5 -20.5t-82 -36t-88 -53z" />
<glyph unicode="&#xe57;" horiz-adv-x="1100" d="M66 330v55q0 82 20 144t58 106t94 69.5t127 33.5l79 -80l77 80q82 -10 136.5 -40t86.5 -75.5t45 -105t12 -126.5l1 -57q-1 -17 -2.5 -38.5t-4.5 -43.5t-7 -44.5t-10 -41.5q18 14 32 35.5t23 47.5t13.5 54.5t4.5 54.5l-1 264q0 56 16 97.5t44 68.5t67 40.5t87 13.5 l24 -142q-19 0 -32.5 -5.5t-21.5 -18t-12 -32.5t-4 -48v-224q0 -76 -20 -141t-62.5 -114.5t-107 -81t-153.5 -41.5l-127 88q34 33 52 63.5t27 59.5t11 60t2 65v61q0 44 -7.5 76.5t-19.5 55.5t-27.5 37t-33.5 20l-108 -109l-110 113q-16 -4 -33.5 -17t-32 -37t-24.5 -59 t-9 -84l-1 -53v-37t3 -42t8.5 -41t15.5 -36t25.5 -25t37.5 -9q4 0 13 0.5t21.5 1.5t26 2.5t27.5 3.5l4 -142q-11 -3 -27.5 -6.5t-35.5 -5.5t-39 -2q-22 0 -40 4q-50 10 -84 30t-57 47t-37 59t-20 65t-8 66t-2 63z" />
<glyph unicode="&#xe58;" horiz-adv-x="925" d="M68 400q0 76 23.5 136.5t69.5 103t114.5 65t159.5 22.5h191q28 0 45 8.5t28 23.5t15 35q4 22 4 46h170q0 -29 -4 -60t-15 -59.5t-29 -54.5t-47 -45t-68.5 -30t-92.5 -11h-210q-48 0 -83.5 -13.5t-58 -36t-33.5 -50.5t-11 -58l2 -152q0 -23 7.5 -44.5t21 -39t29.5 -29.5 q17 -11 34 -15l136 108l134 -108q18 0 34 6.5t28 20t20 36.5t8 57q0 14 -2.5 29t-10 27.5t-20.5 22t-33 11.5q-7 2 -21 2h-29l1 130h61q48 -2 83.5 -13t60 -27t39.5 -37t23 -45t10 -50q4 -25 4 -50q0 -67 -17 -117.5t-52 -85t-89 -52t-128 -17.5l-102 82l-104 -82 q-72 4 -127.5 28t-93 62t-56.5 87t-17 103z" />
<glyph unicode="&#xe59;" horiz-adv-x="942" d="M65 328v59q0 87 14 153t46.5 110t85.5 67t131 23q14 0 31.5 -0.5t36 -2t36.5 -5.5t34 -11q14 -10 28 -21q14 -10 27 -28l56 53q6 6 15 10.5t23 4.5h49q27 0 43 6t24.5 19t10.5 31q4 20 4 44h168q0 -30 -4 -59.5t-13 -57t-25 -50.5t-42.5 -40t-65 -27t-90.5 -10h-12 q-6 0 -14 -4.5t-16 -11t-16 -15.5t-16 -16l270 -549h-176l-240 494q-24 50 -55 76t-73 26q-23 0 -42.5 -9.5t-34.5 -33t-23 -63t-8 -99.5v-75q0 -18 2 -38.5t6.5 -40t12 -38t18.5 -32t27 -22t37 -8.5q11 0 30 1.5t40 5.5l23 -138q-12 -3 -29 -5.5t-36.5 -4.5t-40 -3t-36.5 1 q-51 6 -87.5 23.5t-60.5 43.5t-39 58.5t-22 67.5t-9.5 71t-2.5 70z" />
<glyph unicode="&#xe5a;" horiz-adv-x="1153" d="M58 600q0 45 12 80.5t32.5 62t48.5 45t59.5 30t65.5 16.5q34 6 66 6h134v-142h-135q-56 0 -81.5 -24.5t-26.5 -75.5q0 -24 7.5 -48.5t26.5 -43.5t51.5 -31t82.5 -12q108 0 164.5 39.5t56.5 123.5v214h168v-840h-168v391q-40 -34 -95.5 -50.5t-120.5 -16.5q-86 0 -151 19 t-109 55.5t-66 87.5t-22 114zM907 840h168v-840h-167z" />
<glyph unicode="&#xe5b;" horiz-adv-x="1800" d="M81 436q0 47 10.5 95.5t31.5 94t52 85t72 69.5t91 47t109 17q56 0 101.5 -13.5t80.5 -37t61 -55.5t42.5 -70t24 -80t8.5 -84l-157 -2q0 88 -37.5 133t-107.5 49q-51 0 -91 -20t-67 -55t-41.5 -82t-14.5 -101q0 -50 19.5 -97.5t53.5 -84t82 -58.5t106 -22q56 0 101 18 t78.5 50t57 77t38.5 97t22 111t8 120l109 61q23 -24 44 -50t39.5 -51t34.5 -49q16 -23 28 -42q13 18 29 42t33 48.5t33.5 48.5t31.5 43q14 -22 30.5 -46.5t32 -49t29.5 -47t25 -41.5l63 88h269l106 -164h-322q-14 -18 -29 -41t-31 -50t-32 -56.5t-32 -59.5q-31 65 -59.5 116 t-54.5 93q-27 -40 -59.5 -108t-64.5 -162q-30 87 -60 153.5t-60 110.5q-8 -61 -28.5 -116.5t-51 -102.5t-69.5 -85t-85.5 -64.5t-99.5 -41t-110 -14.5q-68 0 -126 17.5t-105 48t-83 72.5t-60 90t-36.5 101t-12.5 107z" />
<glyph unicode="&#x2000;" horiz-adv-x="819" />
<glyph unicode="&#x2001;" horiz-adv-x="1638" />
<glyph unicode="&#x2002;" horiz-adv-x="819" />
<glyph unicode="&#x2003;" horiz-adv-x="1638" />
<glyph unicode="&#x2004;" horiz-adv-x="546" />
<glyph unicode="&#x2005;" horiz-adv-x="409" />
<glyph unicode="&#x2006;" horiz-adv-x="273" />
<glyph unicode="&#x2007;" horiz-adv-x="273" />
<glyph unicode="&#x2008;" horiz-adv-x="204" />
<glyph unicode="&#x2009;" horiz-adv-x="327" />
<glyph unicode="&#x200a;" horiz-adv-x="91" />
<glyph unicode="&#x200b;" />
<glyph unicode="&#x2010;" horiz-adv-x="663" d="M63 309v133h536l1 -133h-537z" />
<glyph unicode="&#x2011;" horiz-adv-x="663" d="M63 309v133h536l1 -133h-537z" />
<glyph unicode="&#x2012;" horiz-adv-x="663" d="M63 309v133h536l1 -133h-537z" />
<glyph unicode="&#x2013;" horiz-adv-x="824" d="M0 312v157h824v-157h-824z" />
<glyph unicode="&#x2014;" horiz-adv-x="1024" d="M-1 469h1025v-157h-1024z" />
<glyph unicode="&#x2018;" horiz-adv-x="409" d="M108 620v180q0 47 11 88.5t34.5 72.5t59.5 49.5t85 18.5v-97q-22 0 -37.5 -10.5t-25.5 -28t-15 -39.5t-5 -45h83v-189h-190z" />
<glyph unicode="&#x2019;" horiz-adv-x="409" d="M109 606v96q22 0 37.5 11t25.5 28t15 39q5 24 5 46h-83v188h191v-179q0 -48 -11.5 -89.5t-35 -72.5t-59.5 -49t-85 -18z" />
<glyph unicode="&#x201c;" horiz-adv-x="639" d="M93 620v180q0 47 11.5 88.5t34.5 72.5t59 49.5t86 18.5v-97q-22 0 -38 -10.5t-26 -28t-15 -39.5t-5 -45h84v-189h-191zM354 620v180q0 47 11 88.5t34.5 72.5t59.5 49.5t85 18.5v-97q-22 0 -37.5 -10.5t-25.5 -28t-15 -39.5t-5 -45h83v-189h-190z" />
<glyph unicode="&#x201d;" horiz-adv-x="639" d="M93 606v96q22 0 37.5 11t25.5 28t15 39q5 24 5 46h-83v188h191v-179q0 -48 -11.5 -89.5t-35 -72.5t-59.5 -49t-85 -18zM354 606v96q22 0 37 11t25 28t15 39q5 24 5 46h-82v188h190v-179q0 -48 -11 -89.5t-35 -72.5t-60 -49t-84 -18z" />
<glyph unicode="&#x2022;" horiz-adv-x="545" d="M38 430q0 44 18 84t49.5 70.5t74 49t89.5 18.5q48 0 91 -18.5t75 -49t50.5 -70.5t18.5 -84q0 -47 -18 -88t-50 -71.5t-75 -48t-91 -17.5t-90 17.5t-74 48t-50 71.5t-18 88z" />
<glyph unicode="&#x202f;" horiz-adv-x="327" />
<glyph unicode="&#x205f;" horiz-adv-x="409" />
<glyph unicode="&#x20ac;" horiz-adv-x="1112" d="M30 530v121h134q20 76 60 140.5t98 110.5t136 72q76 26 172 26q83 0 154.5 -21t127 -63t92.5 -106q38 -63 52 -147h-180q-10 50 -32 86.5t-53.5 59.5t-73 34t-89.5 11q-57 0 -102.5 -16t-81 -43t-60.5 -64t-40 -80h292v-121h-316q-1 -8 -1.5 -17t-0.5 -18q0 -12 1 -24.5 t1 -24.5h316v-120h-292q16 -44 41.5 -81t61 -63t81 -41t102.5 -15q60 0 105 19t76.5 52t49 78t21.5 97h176q-11 -92 -43.5 -165t-87 -123t-131 -76t-176.5 -26q-97 0 -174 25t-134.5 70.5t-95.5 109t-56 139.5h-128v120h110v38v46h-112z" />
<glyph unicode="&#x2122;" horiz-adv-x="1376" d="M70 978h488v-108h-180l-1 -486h-127l2 486h-181zM641 384l1 594h172l160 -393l155 393h174l-1 -594h-130v397l-158 -397h-84l-162 397v-397h-127z" />
<glyph unicode="&#x25cc;" horiz-adv-x="934" d="M215 404l79 38q-2 -18 -3 -38t4 -40zM284 228l32 79q12 -17 24 -31t30 -24zM298 580l82 -29q-22 -11 -38 -23t-24 -28zM426 572l40 80l36 -78q-20 4 -41 3t-35 -5zM428 228q9 -2 17.5 -4t17 -1.5t17.5 2t20 5.5l-35 -78zM558 553l90 27l-35 -82q-12 17 -26.5 30.5 t-28.5 24.5zM559 250q18 10 31 23t24 28l22 -75zM639 366q6 17 5.5 35.5t-5.5 38.5l77 -38z" />
<glyph unicode="&#x25fc;" horiz-adv-x="727" d="M0 0v728h728v-728h-728z" />
<glyph unicode="&#xf700;" horiz-adv-x="807" d="M42 576q10 62 40 114t77 89t111 58t142 21q36 0 71 -5t67 -15q17 3 30 11.5t21.5 20.5t12.5 26t4 28h181q0 -24 -6.5 -50t-19.5 -50t-34 -44q-21 -18 -51 -30q27 -32 41 -78.5t13 -108.5q0 -32 -9 -74.5t-24.5 -91.5t-35.5 -101.5t-41.5 -104t-43.5 -100.5t-41 -91h-211 l-136 375h-112v131h244l114 -328q19 44 39.5 94t37.5 99.5t29 96.5q10 46 12 83q1 82 -41.5 123t-127.5 41q-68 0 -110.5 -35.5t-58.5 -103.5h-184z" />
<glyph unicode="&#xf701;" d="M-910 966l66 134h518v-134h-584z" />
<glyph unicode="&#xf702;" d="M-910 966l66 134h358v118h160v-252h-584z" />
<glyph unicode="&#xf703;" d="M-910 966l68 134h236l-1 14q0 30 11.5 57t31.5 47t46 32t58 12q30 0 57 -12t47.5 -32t32 -47t11.5 -57q0 -31 -11 -57.5t-31 -46.5t-47 -32t-58 -12h-451zM-513 1114q0 -10 4.5 -20t12 -16.5t17 -10.5t20.5 -4q10 0 20 4t17 10.5t11.5 16.5t4.5 20q0 24 -16 39t-37 15 q-10 0 -20.5 -4t-17.5 -11.5t-11.5 -17t-4.5 -21.5z" />
<glyph unicode="&#xf704;" d="M-910 966l68 134h138l-2 118h152l1 -118h76l-1 118h152v-252h-584z" />
<glyph unicode="&#xf705;" d="M-532 1222h164l1 -258h-163z" />
<glyph unicode="&#xf706;" d="M-768 1094v122h202v-122q40 0 69 10t47 27t27 39t9 46h148q0 -48 -18 -92t-56.5 -78t-98 -54.5t-142.5 -20.5h-119l1 123h-69z" />
<glyph unicode="&#xf707;" d="M-848 973q-3 57 7.5 99t28.5 70t43 42t51 14q32 0 56 -14t36 -39q7 10 17.5 19.5t23.5 17t27.5 12t28.5 4.5q18 0 34.5 -6.5t31 -19t26 -30.5t17.5 -42q8 9 13 21.5t8 27.5t4 31q1 14 1 30h127q0 -43 -11.5 -82.5t-31.5 -71.5t-47 -54t-61 -29h-98q0 17 -1 35t-4.5 33 t-10 24.5t-16.5 9.5q-8 0 -14 -5.5t-10 -15t-6 -22.5q-3 -14 -3 -28h-85q0 14 -2 27.5t-5 23t-9 15t-14 5.5q-11 0 -17.5 -9.5t-10.5 -24.5t-5 -33t-2 -35h-117z" />
<glyph unicode="&#xf708;" d="M-702 1192h117l1 102h154l-1 -102h117v-121h-116v-105h-154v105h-116z" />
<glyph unicode="&#xf709;" d="M-654 968q0 58 21 104t61 78t97 49t129 17v-126q-76 0 -116 -29t-40 -93h-152z" />
<glyph unicode="&#xf70a;" d="M-245 1222h163l2 -258h-162z" />
<glyph unicode="&#xf70b;" d="M-556 1096v124h211v-124q40 0 71.5 10t52.5 27t31 39q11 22 11 48h149q0 -48 -20 -93t-61.5 -80t-104 -55.5t-146.5 -20.5h-122v125h-72z" />
<glyph unicode="&#xf70c;" d="M-660 972q-3 57 7.5 99t30.5 70t46 41.5t54 13.5q33 0 58.5 -14t36.5 -38q8 10 19 19t24.5 17t28.5 12t29 4q18 0 36 -6t34 -18.5t28 -31t19 -42.5q8 9 13.5 22t8.5 27.5t4 30.5t1 31h132q0 -43 -12 -83t-33 -71.5t-49 -53.5q-28 -21 -62 -29h-102q0 17 -2 34.5t-6 32.5 t-11 25t-17 10q-8 0 -15 -6t-11.5 -15t-7 -22t-2.5 -28h-88q0 14 -2 27.5t-6 22.5t-10 15t-14 6q-12 0 -19 -10t-11.5 -25t-6 -33t-2.5 -34h-121z" />
<glyph unicode="&#xf70d;" d="M-357 1073v125h119v104h156v-104h120v-125h-120v-107h-154v107h-121z" />
<glyph unicode="&#xf70e;" d="M-347 968q0 58 21 104t60.5 78t95.5 49t128 17l1 -126q-76 0 -116 -29q-41 -29 -41 -93h-149z" />
<glyph unicode="&#xf70f;" horiz-adv-x="1325" d="M22 572q8 34 22.5 69t37.5 67t54 59t70.5 47.5t88 32t106.5 11.5q70 0 125.5 -14t96.5 -39t69 -59.5t46 -75t26 -86.5t8 -92v-201q0 -40 12 -71.5t33 -52.5t49 -31.5t60 -10.5q30 0 57 9.5t48 30t33 52t12 74.5v549h170v-564q0 -50 -12.5 -92t-34.5 -75t-52 -57 t-65.5 -40t-75.5 -24t-80 -8q-64 0 -123 19t-104 56t-72 93t-27 128v232q0 36 -10 71.5t-33 64t-61.5 46.5t-95.5 18q-46 0 -81 -10t-59.5 -27t-39 -39t-20.5 -44q31 -22 45.5 -62t14.5 -90v-299h90v-137h-258v438q0 18 -3 36.5t-11 36t-22 33.5q-13 16 -34 28z" />
<glyph unicode="&#xf710;" d="M-614 968v202h155l-1 -72h540v-130h-694z" />
<glyph unicode="&#xf711;" d="M-643 1112q0 33 12.5 62t33.5 50.5t50 34.5t63 13q32 0 61 -13t51 -34.5t35 -50.5t13 -62t-13 -62t-35 -50.5t-51 -34.5t-61 -13q-33 0 -62 13t-50.5 34.5t-34 50.5t-12.5 62zM-540 1112q0 -12 4 -22t12 -18t18 -13t22 -5t22.5 5t18.5 13t12.5 18t4.5 22t-5 22t-13 18 t-18 13t-22 5t-22 -5t-18 -13t-12 -18t-4 -22z" />
<glyph unicode="&#xf712;" d="M-856 1159q0 51 17 87t46 60t67.5 35t80.5 11h381v-119h-370q-28 0 -45 -7.5t-25 -18.5t-10 -24t-2 -24q0 -6 1 -15.5t6 -18.5t14 -15t25 -6q50 0 48 70h108q-2 -36 10 -53t34 -17q14 0 22.5 5t13 14t5 22t-0.5 29h118q5 -54 -3.5 -91t-28 -60t-47.5 -33.5t-60 -10.5 q-21 0 -39 5.5t-32.5 15.5t-25 22t-16.5 26q-8 -14 -21 -26t-30 -22t-36.5 -15.5t-39.5 -5.5q-48 0 -79.5 17t-50.5 43.5t-27 58t-8 61.5z" />
<glyph unicode="&#xf713;" d="M-482 1313v245h154l2 -245h-156z" />
<glyph unicode="&#xf714;" d="M-710 1560h211l2 -124q40 0 72 10t53.5 27t32.5 39t10 48h145q0 -48 -19 -93t-60 -80t-103 -56q-64 -21 -148 -21h-116v126h-78z" />
<glyph unicode="&#xf715;" d="M-728 1310q-4 56 5.5 97t29 68t45.5 40t54 13t52 -14q22 -14 40 -38q15 24 41.5 38t56.5 14q39 0 69.5 -22t44.5 -68q8 10 15 23t12 28.5t8 33t3 33.5h132q0 -25 -6 -51.5t-17 -52.5t-26.5 -49.5t-34 -42.5t-39.5 -32q-21 -14 -43 -18h-106q0 11 -1.5 27t-5 30.5 t-10.5 25t-19 10.5q-9 0 -15 -4.5t-9.5 -11.5t-5.5 -17t-2 -20h-80q0 22 -7 37.5t-22 15.5q-12 0 -18.5 -9.5t-10.5 -24t-5 -30.5q-1 -17 -1 -29h-124z" />
<glyph unicode="&#xf716;" d="M-601 1415l1 121h119l1 102h149l1 -102h117l-1 -121h-116l1 -105h-152l-1 105h-119z" />
<glyph unicode="&#xf717;" d="M-480 1214q-1 58 19.5 103.5t60.5 77.5t96 49.5t127 17.5l1 -126q-76 0 -115 -29t-38 -93h-151z" />
<glyph unicode="&#xf718;" d="M-308 -342h232l-2 -314h-158l2 185h-73z" />
<glyph unicode="&#xf719;" d="M-609 -342h233v-114q0 -40 18 -61q16 -21 52 -21q34 0 52 20q18 22 18 62v114h158v-114q0 -44 -12 -83t-39 -68t-70.5 -46t-106.5 -17q-59 0 -101.5 14.5t-70.5 40.5t-42 63q-12 36 -14 81h-74z" />
<glyph unicode="&#xf71a;" d="M-286 -438q0 24 9.5 44.5t25 36t36.5 24.5t45 9q23 0 43.5 -9t35.5 -24.5t24 -36t9 -44.5q0 -23 -9 -43.5t-24.5 -36t-36 -24.5t-44.5 -9t-44 9t-36 24.5t-25 36t-9 43.5z" />
<glyph unicode="&#xf71d;" horiz-adv-x="1112" d="M20 840h188l103 -617l142 485h174l149 -487q8 42 16 81.5t15.5 78.5l15 78t15.5 79q7 31 8.5 52.5t1.5 40.5q0 22 -5 38.5t-17 28t-32 17.5t-48 6l1 119q40 2 72 10t55.5 23.5t37.5 40t18 59.5h192q-6 -44 -20 -78.5t-34.5 -59.5t-47 -41t-56.5 -24q22 -19 35 -43.5 t18 -51.5t3 -57q0 -29 -8 -59l-138 -559h-186l-152 482l-143 -482h-186z" />
<glyph d="M-672 968q0 40 8 76.5t26.5 66t47 51.5t68.5 32q7 29 24.5 53.5t46.5 42.5t70 27.5t97 9.5l1 -129q-34 0 -55.5 -5t-33.5 -16t-16 -26t-4 -35v-34h-40q-27 0 -44.5 -8t-27.5 -23t-13.5 -36t-3.5 -47h-151z" />
<glyph horiz-adv-x="715" d="M-644 1112q0 33 12.5 62t34 50.5t50.5 34.5t62 13q32 0 61.5 -13t51.5 -34.5t35 -50.5t13 -62t-13 -62t-35 -50.5t-51 -34.5t-61 -13q-33 0 -62.5 13t-50.5 34.5t-34 50.5t-13 62zM-541 1112q0 -12 4.5 -22t12.5 -18t18 -13t22 -5t22 5t18 13t13 18t5 22t-5 22t-13 18 t-18 13t-22 5t-22 -5t-18 -13t-12.5 -18t-4.5 -22zM22 563q0 48 12 88t33 72.5t50.5 57.5t64 41.5t72.5 25t78 8.5q65 0 120.5 -18t96.5 -54t64 -91t23 -130v-563h-168v534q0 90 -35 132t-101 42q-58 0 -94 -36t-40 -109h-176z" />
<glyph horiz-adv-x="715" d="M-644 1112q0 33 12.5 62t34 50.5t50.5 34.5t62 13q32 0 61.5 -13t51.5 -34.5t35 -50.5t13 -62t-13 -62t-35 -50.5t-51 -34.5t-61 -13q-33 0 -62.5 13t-50.5 34.5t-34 50.5t-13 62zM-541 1112q0 -12 4.5 -22t12.5 -18t18 -13t22 -5t22 5t18 13t13 18t5 22t-5 22t-13 18 t-18 13t-22 5t-22 -5t-18 -13t-12.5 -18t-4.5 -22zM22 563q0 48 12 88t33 72.5t50.5 57.5t64 41.5t72.5 25t78 8.5q65 0 120.5 -18t96.5 -54t64 -91t23 -130v-563h-168v534q0 90 -35 132t-101 42q-58 0 -94 -36t-40 -109h-176z" />
<glyph d="M-688 966l68 134h542v-134h-610z" />
<glyph d="M-688 966l68 134h384l-2 118h159l1 -252h-610z" />
<glyph d="M-688 966l68 134h268l-1 14q0 30 11.5 57t31 47t46 32t56.5 12t57 -12t47.5 -32t32 -47t11.5 -57q0 -31 -11 -57.5t-31 -46.5t-46.5 -32t-56.5 -12h-483zM-259 1114q0 -10 4.5 -20t11.5 -16.5t16.5 -10.5t19.5 -4t20 4t17 10.5t11.5 16.5t4.5 20q0 24 -16 39t-37 15 q-10 0 -20 -4t-17 -11.5t-11 -17t-4 -21.5z" />
<glyph d="M-688 966l68 134h166l-2 118h152l1 -118h73v118h151l1 -252h-610z" />
<glyph d="M-1082 966l66 134h725v-134h-791z" />
<glyph d="M-1082 966l66 134h566l-2 118h160l1 -252h-791z" />
<glyph d="M-1082 966l68 134h448v14q0 30 11.5 57t31 47t46.5 32t57 12t57.5 -12t47 -32t31.5 -47q10 -27 10 -57q0 -31 -10.5 -57.5t-30 -46.5t-46.5 -32t-57 -12h-664zM-472 1114q0 -22 15.5 -36.5t38.5 -14.5q22 0 36 14.5t14 36.5q0 24 -14 39t-36 15q-12 0 -22 -4t-17 -11.5 t-11 -17t-4 -21.5z" />
<glyph d="M-1082 966l68 134h344v118h151l1 -118h76l-2 118h152l1 -252h-791z" />
<glyph d="M-448 1558h154l2 -245h-155z" />
<glyph d="M-690 1560h211l2 -124q40 0 71.5 10t53 27t32.5 39t11 48h145q0 -48 -20 -93t-61 -80t-103 -56t-146 -21h-116v126h-78z" />
<glyph d="M-688 1310q-4 56 6 97t29 68t45 40t54 13t52 -14t41 -38q15 24 41 38t56 14q39 0 70 -22t44 -68q8 10 15 23t12 28.5t8 33t3 33.5h133q0 -25 -6 -51.5t-17.5 -52.5t-26.5 -49.5t-34 -42.5t-40 -32q-21 -14 -43 -18h-106q0 11 -1 27t-4.5 30.5t-10.5 24.5q-8 11 -20 11 q-9 0 -14.5 -4.5t-9.5 -11.5t-6 -17t-2 -20h-80q0 22 -7 37.5t-21 15.5q-12 0 -19 -9.5t-10.5 -24t-4.5 -30.5q-1 -17 -1 -29h-125z" />
<glyph d="M-564 1415v121h119l1 102h149l-1 -102h120l-2 -121h-118l3 -105h-151l-2 105h-118z" />
<glyph d="M-1032 966l68 134h886v-134h-954z" />
<glyph d="M-1032 966l68 134h728l-2 118h159l1 -252h-954z" />
<glyph d="M-1032 966l68 134h612l-1 14q0 30 11.5 57t31 47t46 32t56.5 12t57 -12t47.5 -32t32 -47t11.5 -57q0 -31 -11 -57.5t-31 -46.5t-46.5 -32t-56.5 -12h-827zM-259 1114q0 -10 4.5 -20t11.5 -16.5t16.5 -10.5t19.5 -4t20 4t17 10.5t11.5 16.5t4.5 20q0 24 -16 39t-37 15 q-10 0 -20 -4t-17 -11.5t-11 -17t-4 -21.5z" />
<glyph d="M-1032 966l68 134h510l-2 118h152l1 -118h73v118h151l1 -252h-954z" />
<glyph d="M-236 1210v246h156l-1 -246h-155z" />
<glyph d="M-466 1333l1 125h209v-125q40 1 72 11t54 27t34 39t12 48h144q0 -48 -20 -93t-61.5 -80t-103.5 -56t-146 -21h-117v125h-78z" />
<glyph d="M-556 1208q-4 56 6 97t29 68t45 40t54 13t52 -14t42 -38q15 24 41.5 38t55.5 14q39 0 70 -22t43 -68q8 10 15 23t12 28.5t8 33t4 33.5h133q0 -25 -6 -51.5t-17.5 -52.5t-27 -49.5t-34 -42.5t-39.5 -32q-21 -14 -43 -18h-107q0 11 -1 27t-4 30.5t-10 25t-20 10.5 q-9 0 -15 -4.5t-10 -11.5t-5.5 -17t-1.5 -20h-80q0 22 -7.5 37.5t-21.5 15.5q-12 0 -18.5 -9.5t-10 -24t-4.5 -30.5q-1 -17 -1 -29h-126z" />
<glyph d="M-352 1434h117l1 102h152l-2 -102h119l1 -121h-118v-105h-152v105h-116z" />
<glyph d="M-503 1231l1 245h156l-2 -245h-155z" />
<glyph d="M-730 1354v124h211v-124q40 1 72.5 10.5t54.5 26.5t34 39q11 22 11 48h143q0 -48 -20 -93t-61 -80t-103 -55q-64 -21 -148 -21h-116v125h-78z" />
<glyph d="M-771 1229q-4 56 5.5 96.5t29 67.5t45 40t54.5 13q28 0 51.5 -14t41.5 -37q15 24 41.5 37.5t56.5 13.5q39 0 69.5 -22t43.5 -68q8 10 15 23t12 29t8 33q4 17 4 34h132q0 -25 -6 -52t-17 -52.5t-27 -49t-34 -42.5t-39 -32t-43 -18h-107q0 11 -1.5 27t-4.5 30t-10 25 t-19 11q-9 0 -15.5 -4.5t-10 -12t-4.5 -17.5q-2 -10 -2 -20h-80q0 22 -8 38t-22 16q-12 0 -18 -10t-10 -24t-5 -30t-1 -29h-125z" />
<glyph d="M-622 1454h118l2 102h151l-1 -102h116l2 -121h-116l-1 -104h-151v104h-119z" />
<glyph d="M-476 -226l2 130h231l-1 -314h-158v184h-74z" />
<glyph d="M-664 -226l1 130h233v-115q-1 -40 16 -61q16 -21 52 -21q34 0 52 21t19 61l1 115h158l-1 -115q-1 -44 -13 -82.5t-38.5 -67.5t-69.5 -46t-106 -17q-60 0 -102 14t-70 40.5t-42 63t-17 80.5h-73z" />
<glyph d="M-472 -184q0 24 9 44.5t24.5 36t36 24.5t44.5 9q23 0 43.5 -9t36 -24.5t24.5 -36t9 -44.5q0 -23 -8.5 -43.5t-23.5 -36t-36 -24.5t-43 -9q-24 0 -45 9t-37 24.5t-25 36t-9 43.5z" />
<glyph d="M-456 -226l2 130h232l-2 -314h-158v184h-74z" />
<glyph d="M-767 -226l1 130h234v-115q-1 -40 15.5 -61t52.5 -21q34 0 52 21t18 61l2 115h157l-1 -115q0 -44 -12 -82.5t-38.5 -67.5t-70 -46t-105.5 -17q-59 0 -101.5 14t-70.5 40.5t-42 63.5q-16 36 -18 80h-73z" />
<glyph d="M-440 -184q0 24 9 44.5t25 36t36.5 24.5t44.5 9q23 0 44 -9t36 -24.5t24 -36t9 -44.5q0 -23 -9 -43.5t-24 -36t-35 -24.5t-44 -9t-45 9t-36.5 24.5t-25 36t-9.5 43.5z" />
<glyph d="M-636 968v202h156l-1 -72h643v-130h-798z" />
<glyph d="M-490 1313v245h155l1 -245h-156z" />
<glyph d="M-704 1560h210l2 -124q40 0 72 10t54 27t33 39t9 48h146q0 -48 -19.5 -93t-60.5 -80t-103.5 -56t-146.5 -21h-116v126h-78z" />
<glyph d="M-666 1310q-4 56 6 97t29 68t45 40t54 13t52 -14t42 -38q15 24 41.5 38t55.5 14q39 0 70 -22t43 -68q8 10 15 23t12 28.5t8 33t4 33.5h133q0 -25 -6 -51.5t-17.5 -52.5t-27 -49.5t-34 -42.5t-39.5 -32q-21 -14 -43 -18h-107q0 11 -1 27t-4 30.5t-10 25t-20 10.5 q-9 0 -15 -4.5t-10 -11.5t-5.5 -17t-1.5 -20h-80q0 22 -7.5 37.5t-21.5 15.5q-12 0 -18.5 -9.5t-10 -24t-4.5 -30.5q-1 -17 -1 -29h-126z" />
<glyph d="M-608 1415l2 121h118v102h150l2 -102h116v-121h-118l2 -105h-152l-1 105h-119z" />
<glyph d="M-468 -226l2 130h230v-314h-158v184h-74z" />
<glyph d="M-668 -226l2 130h234l-1 -115q0 -40 16.5 -61t52.5 -21q34 0 52 21t18 61l1 115h157v-115q0 -44 -12 -82.5t-39 -67.5t-70 -46t-105 -17q-60 0 -102.5 14t-70 40.5t-41.5 63.5q-16 36 -18 80h-74z" />
<glyph d="M-461 -184q0 24 9 44.5t24.5 36t36.5 24.5t45 9q23 0 43.5 -9t35.5 -24.5t24 -36t9 -44.5q0 -23 -8.5 -43.5t-23.5 -36t-35.5 -24.5t-43.5 -9q-24 0 -45 9t-36.5 24.5t-25 36t-9.5 43.5z" />
</font>
</defs>
</svg>
