<svg width="25" height="25" viewBox="0 0 40 40" fill="none" xmlns="http://www.w3.org/2000/svg">
<path d="M40 17.0263C40 7.62301 31.0435 0 20 0C8.95652 0 0 7.62301 0 17.0263C0 25.4709 7.13043 32.5005 16.7391 33.8243C17.3913 33.9612 18.2609 34.2807 18.5217 34.8741C18.7391 35.4219 18.6522 36.2436 18.5652 36.7913C18.5652 36.7913 18.3478 38.252 18.2609 38.5715C18.1739 39.1193 17.8696 40.6256 20 39.7127C22.1304 38.7541 31.5217 32.5918 35.6957 27.525C38.6087 24.1928 40 20.7693 40 17.0263Z" fill="white"/>
<path d="M15.9135 12.5073H14.5222C14.3048 12.5073 14.1309 12.6899 14.1309 12.9181V22.0474C14.1309 22.2757 14.3048 22.4583 14.5222 22.4583H15.9135C16.1309 22.4583 16.3048 22.2757 16.3048 22.0474V12.9181C16.3048 12.6899 16.1309 12.5073 15.9135 12.5073Z" fill="#68B82B"/>
<path d="M25.5658 12.5073H24.1745C23.9571 12.5073 23.7832 12.6899 23.7832 12.9181V18.3501L19.7832 12.6899C19.7832 12.6899 19.7832 12.6442 19.7397 12.6442C19.7397 12.6442 19.7397 12.6442 19.6962 12.5986C19.6962 12.5986 19.6962 12.5986 19.6528 12.5986C19.6528 12.5986 19.6528 12.5986 19.6093 12.5986C19.6093 12.5986 19.6093 12.5986 19.5658 12.5986H18.1745C17.9571 12.5986 17.7832 12.7811 17.7832 13.0094V22.1387C17.7832 22.367 17.9571 22.5496 18.1745 22.5496H19.5658C19.7832 22.5496 19.9571 22.367 19.9571 22.1387V16.6155L23.9571 22.2757C24.0006 22.3213 24.0006 22.367 24.0441 22.367C24.0441 22.367 24.0441 22.367 24.0876 22.367C24.0876 22.367 24.0876 22.367 24.131 22.367C24.1745 22.367 24.1745 22.367 24.218 22.367H25.6093C25.8267 22.367 26.0006 22.1844 26.0006 21.9562V12.9181C25.9571 12.6899 25.7832 12.5073 25.5658 12.5073Z" fill="#68B82B"/>
<path d="M12.5654 20.1759H8.73934V12.918C8.73934 12.6898 8.56543 12.5072 8.34804 12.5072H6.95673C6.73934 12.5072 6.56543 12.6898 6.56543 12.918V22.0474C6.56543 22.1387 6.60891 22.2756 6.69586 22.3213C6.78282 22.4126 6.86978 22.4126 6.95673 22.4126H12.5654C12.7828 22.4126 12.9567 22.23 12.9567 22.0017V20.541C12.9567 20.3584 12.7828 20.1759 12.5654 20.1759Z" fill="#68B82B"/>
<path d="M33.3481 14.7896C33.5655 14.7896 33.7394 14.607 33.7394 14.3788V12.9181C33.7394 12.6899 33.5655 12.5073 33.3481 12.5073H27.7394C27.6525 12.5073 27.522 12.5529 27.4786 12.6442C27.3916 12.7355 27.3916 12.8268 27.3916 12.9181V22.0474C27.3916 22.1387 27.4351 22.2757 27.522 22.3213C27.609 22.4126 27.6959 22.4583 27.7829 22.4583H33.3481C33.5655 22.4583 33.7394 22.2757 33.7394 22.0474V20.5867C33.7394 20.3585 33.5655 20.1759 33.3481 20.1759H29.522V18.6239H33.3481C33.5655 18.6239 33.7394 18.4413 33.7394 18.2131V16.7524C33.7394 16.5242 33.5655 16.3416 33.3481 16.3416H29.522V14.7896H33.3481Z" fill="#68B82B"/>
</svg>
