<svg width="25" height="25" viewBox="0 0 40 40" fill="none" xmlns="http://www.w3.org/2000/svg">
<path d="M28.2951 27.6124C27.7429 27.0663 27.0014 26.8172 26.2631 26.8557L26.2661 26.8533C22.9615 26.9929 21.9142 29.5764 21.6789 30.3269C10.8051 26.7922 9.80788 18.5203 9.80788 18.5203L11.9141 15.5877L9.80788 18.5203C11.9601 17.6415 12.7921 16.0544 13.1149 14.9271C13.2869 14.5117 13.3554 14.0668 13.3184 13.6324V13.6404V13.6324C13.2673 13.0278 13.014 12.4441 12.5568 11.9891L7.24846 6.71798C6.1937 5.67092 4.44156 5.70285 3.34564 6.79078L1.84935 8.28456L1.88993 8.32484C1.38825 8.96042 0.96922 9.69326 0.656958 10.4837C0.369296 11.2363 0.190149 11.9539 0.10839 12.6733C-0.592277 18.4427 2.06307 23.7145 9.27004 30.8691C19.232 40.7576 27.2601 40.0105 27.6064 39.9738C28.3606 39.8846 29.0835 39.7053 29.8184 39.4221C30.6075 39.1159 31.3454 38.7006 31.985 38.2035L32.0175 38.2324L33.5333 36.7589C34.6268 35.671 34.6584 33.9329 33.6043 32.8822L28.2951 27.6124ZM13.3176 13.6616V13.6472V13.6616ZM13.2117 14.5314C13.2117 14.5305 13.2123 14.529 13.2123 14.5281C13.2123 14.5296 13.2123 14.5305 13.2117 14.5314ZM13.317 13.6953C13.317 13.6905 13.317 13.6858 13.3176 13.6816C13.317 13.6864 13.317 13.6905 13.317 13.6953ZM38.0148 24.7877C36.9182 24.7877 36.0291 23.905 36.0291 22.8165C36.0291 12.4101 27.5 3.94241 17.0163 3.94241C15.9198 3.94241 15.0306 3.05974 15.0306 1.97121C15.0306 0.882669 15.9198 0 17.0163 0C23.1555 0 28.9274 2.37308 33.2681 6.68277C37.6089 10.9925 40 16.7217 40 22.816C40.0003 23.9049 39.1118 24.7875 38.0146 24.7875L38.0148 24.7877ZM30.2236 23.8731C29.1271 23.8731 28.2379 22.9904 28.2379 21.9019C28.2379 16.2637 23.6176 11.6773 17.9382 11.6773C16.8416 11.6773 15.9525 10.7946 15.9525 9.70607C15.9525 8.61754 16.8416 7.73487 17.9382 7.73487C25.8071 7.73487 32.2093 14.0903 32.2093 21.9019C32.2093 22.9904 31.3204 23.8731 30.2236 23.8731Z" fill="white"/>
</svg>
